<?xml version="1.0" encoding="UTF-8" standalone="no"?>
<!DOCTYPE svg PUBLIC "-//W3C//DTD SVG 1.1//EN"
 "http://www.w3.org/Graphics/SVG/1.1/DTD/svg11.dtd">
<!-- Generated by graphviz version 2.43.0 (0)
 -->
<!-- Title: controllers_diagram Pages: 1 -->
<svg width="1066pt" height="981pt"
 viewBox="0.00 0.00 1066.00 981.00" xmlns="http://www.w3.org/2000/svg" xmlns:xlink="http://www.w3.org/1999/xlink">
<g id="graph0" class="graph" transform="scale(1 1) rotate(0) translate(4 977)">
<title>controllers_diagram</title>
<polygon fill="transparent" stroke="transparent" points="-4,4 -4,-977 1062,-977 1062,4 -4,4"/>
<!-- _diagram_info -->
<g id="node1" class="node">
<title>_diagram_info</title>
<text text-anchor="start" x="428" y="-126.6" font-family="Times,serif" font-size="13.00">Controllers diagram</text>
<text text-anchor="start" x="428" y="-112.6" font-family="Times,serif" font-size="13.00">Date: Jan 11 2025 &#45; 13:24</text>
<text text-anchor="start" x="428" y="-98.6" font-family="Times,serif" font-size="13.00">Migration version: 20250107070727</text>
<text text-anchor="start" x="428" y="-84.6" font-family="Times,serif" font-size="13.00">Generated by RailRoady 1.6.0</text>
<text text-anchor="start" x="428" y="-70.6" font-family="Times,serif" font-size="13.00">http://railroady.prestonlee.com</text>
</g>
<!-- ApplicationController -->
<g id="node2" class="node">
<title>ApplicationController</title>
<path fill="none" stroke="black" d="M12,-378.5C12,-378.5 173,-378.5 173,-378.5 179,-378.5 185,-384.5 185,-390.5 185,-390.5 185,-504.5 185,-504.5 185,-510.5 179,-516.5 173,-516.5 173,-516.5 12,-516.5 12,-516.5 6,-516.5 0,-510.5 0,-504.5 0,-504.5 0,-390.5 0,-390.5 0,-384.5 6,-378.5 12,-378.5"/>
<text text-anchor="middle" x="92.5" y="-501.3" font-family="Times,serif" font-size="14.00">ApplicationController</text>
<polyline fill="none" stroke="black" points="0,-493.5 185,-493.5 "/>
<polyline fill="none" stroke="black" points="0,-469.5 185,-469.5 "/>
<text text-anchor="start" x="8" y="-454.3" font-family="Times,serif" font-size="14.00">render_flash_stream</text>
<polyline fill="none" stroke="black" points="0,-446.5 185,-446.5 "/>
<text text-anchor="start" x="8" y="-431.3" font-family="Times,serif" font-size="14.00">_layout</text>
<text text-anchor="start" x="8" y="-416.3" font-family="Times,serif" font-size="14.00">_layout_from_proc</text>
<text text-anchor="start" x="8" y="-401.3" font-family="Times,serif" font-size="14.00">username_param</text>
<text text-anchor="start" x="8" y="-386.3" font-family="Times,serif" font-size="14.00">verify_profile_existence</text>
</g>
<!-- ChatsController -->
<g id="node3" class="node">
<title>ChatsController</title>
<path fill="none" stroke="black" d="M810,-21.5C810,-21.5 951,-21.5 951,-21.5 957,-21.5 963,-27.5 963,-33.5 963,-33.5 963,-192.5 963,-192.5 963,-198.5 957,-204.5 951,-204.5 951,-204.5 810,-204.5 810,-204.5 804,-204.5 798,-198.5 798,-192.5 798,-192.5 798,-33.5 798,-33.5 798,-27.5 804,-21.5 810,-21.5"/>
<text text-anchor="middle" x="880.5" y="-189.3" font-family="Times,serif" font-size="14.00">ChatsController</text>
<polyline fill="none" stroke="black" points="798,-181.5 963,-181.5 "/>
<text text-anchor="start" x="806" y="-166.3" font-family="Times,serif" font-size="14.00">create</text>
<text text-anchor="start" x="806" y="-151.3" font-family="Times,serif" font-size="14.00">index</text>
<text text-anchor="start" x="806" y="-136.3" font-family="Times,serif" font-size="14.00">show</text>
<text text-anchor="start" x="806" y="-121.3" font-family="Times,serif" font-size="14.00">update</text>
<polyline fill="none" stroke="black" points="798,-113.5 963,-113.5 "/>
<polyline fill="none" stroke="black" points="798,-89.5 963,-89.5 "/>
<text text-anchor="start" x="806" y="-74.3" font-family="Times,serif" font-size="14.00">_layout</text>
<text text-anchor="start" x="806" y="-59.3" font-family="Times,serif" font-size="14.00">_layout_from_proc</text>
<text text-anchor="start" x="806" y="-44.3" font-family="Times,serif" font-size="14.00">chat_params</text>
<text text-anchor="start" x="806" y="-29.3" font-family="Times,serif" font-size="14.00">users_are_connected</text>
</g>
<!-- CommentsController -->
<g id="node4" class="node">
<title>CommentsController</title>
<path fill="none" stroke="black" d="M75,-756.5C75,-756.5 263,-756.5 263,-756.5 269,-756.5 275,-762.5 275,-768.5 275,-768.5 275,-897.5 275,-897.5 275,-903.5 269,-909.5 263,-909.5 263,-909.5 75,-909.5 75,-909.5 69,-909.5 63,-903.5 63,-897.5 63,-897.5 63,-768.5 63,-768.5 63,-762.5 69,-756.5 75,-756.5"/>
<text text-anchor="middle" x="169" y="-894.3" font-family="Times,serif" font-size="14.00">CommentsController</text>
<polyline fill="none" stroke="black" points="63,-886.5 275,-886.5 "/>
<text text-anchor="start" x="71" y="-871.3" font-family="Times,serif" font-size="14.00">create</text>
<text text-anchor="start" x="71" y="-856.3" font-family="Times,serif" font-size="14.00">index</text>
<text text-anchor="start" x="71" y="-841.3" font-family="Times,serif" font-size="14.00">new</text>
<polyline fill="none" stroke="black" points="63,-833.5 275,-833.5 "/>
<polyline fill="none" stroke="black" points="63,-809.5 275,-809.5 "/>
<text text-anchor="start" x="71" y="-794.3" font-family="Times,serif" font-size="14.00">_layout</text>
<text text-anchor="start" x="71" y="-779.3" font-family="Times,serif" font-size="14.00">_layout_from_proc</text>
<text text-anchor="start" x="71" y="-764.3" font-family="Times,serif" font-size="14.00">set_commentable_and_post</text>
</g>
<!-- FollowsController -->
<g id="node5" class="node">
<title>FollowsController</title>
<path fill="none" stroke="black" d="M327,-819.5C327,-819.5 449,-819.5 449,-819.5 455,-819.5 461,-825.5 461,-831.5 461,-831.5 461,-960.5 461,-960.5 461,-966.5 455,-972.5 449,-972.5 449,-972.5 327,-972.5 327,-972.5 321,-972.5 315,-966.5 315,-960.5 315,-960.5 315,-831.5 315,-831.5 315,-825.5 321,-819.5 327,-819.5"/>
<text text-anchor="middle" x="388" y="-957.3" font-family="Times,serif" font-size="14.00">FollowsController</text>
<polyline fill="none" stroke="black" points="315,-949.5 461,-949.5 "/>
<text text-anchor="start" x="323" y="-934.3" font-family="Times,serif" font-size="14.00">accept</text>
<text text-anchor="start" x="323" y="-919.3" font-family="Times,serif" font-size="14.00">create</text>
<text text-anchor="start" x="323" y="-904.3" font-family="Times,serif" font-size="14.00">destroy</text>
<text text-anchor="start" x="323" y="-889.3" font-family="Times,serif" font-size="14.00">index</text>
<polyline fill="none" stroke="black" points="315,-881.5 461,-881.5 "/>
<polyline fill="none" stroke="black" points="315,-857.5 461,-857.5 "/>
<text text-anchor="start" x="323" y="-842.3" font-family="Times,serif" font-size="14.00">_layout</text>
<text text-anchor="start" x="323" y="-827.3" font-family="Times,serif" font-size="14.00">_layout_from_proc</text>
</g>
<!-- PostsController -->
<g id="node6" class="node">
<title>PostsController</title>
<path fill="none" stroke="black" d="M327,-504.5C327,-504.5 455,-504.5 455,-504.5 461,-504.5 467,-510.5 467,-516.5 467,-516.5 467,-765.5 467,-765.5 467,-771.5 461,-777.5 455,-777.5 455,-777.5 327,-777.5 327,-777.5 321,-777.5 315,-771.5 315,-765.5 315,-765.5 315,-516.5 315,-516.5 315,-510.5 321,-504.5 327,-504.5"/>
<text text-anchor="middle" x="391" y="-762.3" font-family="Times,serif" font-size="14.00">PostsController</text>
<polyline fill="none" stroke="black" points="315,-754.5 467,-754.5 "/>
<text text-anchor="start" x="323" y="-739.3" font-family="Times,serif" font-size="14.00">create</text>
<text text-anchor="start" x="323" y="-724.3" font-family="Times,serif" font-size="14.00">destroy</text>
<text text-anchor="start" x="323" y="-709.3" font-family="Times,serif" font-size="14.00">edit</text>
<text text-anchor="start" x="323" y="-694.3" font-family="Times,serif" font-size="14.00">index</text>
<text text-anchor="start" x="323" y="-679.3" font-family="Times,serif" font-size="14.00">like</text>
<text text-anchor="start" x="323" y="-664.3" font-family="Times,serif" font-size="14.00">new</text>
<text text-anchor="start" x="323" y="-649.3" font-family="Times,serif" font-size="14.00">show</text>
<text text-anchor="start" x="323" y="-634.3" font-family="Times,serif" font-size="14.00">unlike</text>
<text text-anchor="start" x="323" y="-619.3" font-family="Times,serif" font-size="14.00">update</text>
<polyline fill="none" stroke="black" points="315,-611.5 467,-611.5 "/>
<polyline fill="none" stroke="black" points="315,-587.5 467,-587.5 "/>
<text text-anchor="start" x="323" y="-572.3" font-family="Times,serif" font-size="14.00">_layout</text>
<text text-anchor="start" x="323" y="-557.3" font-family="Times,serif" font-size="14.00">_layout_from_proc</text>
<text text-anchor="start" x="323" y="-542.3" font-family="Times,serif" font-size="14.00">post_params</text>
<text text-anchor="start" x="323" y="-527.3" font-family="Times,serif" font-size="14.00">set_post</text>
<text text-anchor="start" x="323" y="-512.3" font-family="Times,serif" font-size="14.00">set_posts_liked_ids</text>
</g>
<!-- ProfilesController -->
<g id="node7" class="node">
<title>ProfilesController</title>
<path fill="none" stroke="black" d="M516,-672.5C516,-672.5 638,-672.5 638,-672.5 644,-672.5 650,-678.5 650,-684.5 650,-684.5 650,-903.5 650,-903.5 650,-909.5 644,-915.5 638,-915.5 638,-915.5 516,-915.5 516,-915.5 510,-915.5 504,-909.5 504,-903.5 504,-903.5 504,-684.5 504,-684.5 504,-678.5 510,-672.5 516,-672.5"/>
<text text-anchor="middle" x="577" y="-900.3" font-family="Times,serif" font-size="14.00">ProfilesController</text>
<polyline fill="none" stroke="black" points="504,-892.5 650,-892.5 "/>
<text text-anchor="start" x="512" y="-877.3" font-family="Times,serif" font-size="14.00">create</text>
<text text-anchor="start" x="512" y="-862.3" font-family="Times,serif" font-size="14.00">edit</text>
<text text-anchor="start" x="512" y="-847.3" font-family="Times,serif" font-size="14.00">follow_status</text>
<text text-anchor="start" x="512" y="-832.3" font-family="Times,serif" font-size="14.00">new</text>
<text text-anchor="start" x="512" y="-817.3" font-family="Times,serif" font-size="14.00">show</text>
<text text-anchor="start" x="512" y="-802.3" font-family="Times,serif" font-size="14.00">update</text>
<polyline fill="none" stroke="black" points="504,-794.5 650,-794.5 "/>
<polyline fill="none" stroke="black" points="504,-770.5 650,-770.5 "/>
<text text-anchor="start" x="512" y="-755.3" font-family="Times,serif" font-size="14.00">_layout</text>
<text text-anchor="start" x="512" y="-740.3" font-family="Times,serif" font-size="14.00">_layout_from_proc</text>
<text text-anchor="start" x="512" y="-725.3" font-family="Times,serif" font-size="14.00">authorize_user</text>
<text text-anchor="start" x="512" y="-710.3" font-family="Times,serif" font-size="14.00">avatar_param</text>
<text text-anchor="start" x="512" y="-695.3" font-family="Times,serif" font-size="14.00">profile_params</text>
<text text-anchor="start" x="512" y="-680.3" font-family="Times,serif" font-size="14.00">set_profile</text>
</g>
<!-- Users::ConfirmationsController -->
<g id="node8" class="node">
<title>Users::ConfirmationsController</title>
<path fill="none" stroke="black" d="M810,-483.5C810,-483.5 1027,-483.5 1027,-483.5 1033,-483.5 1039,-489.5 1039,-495.5 1039,-495.5 1039,-580.5 1039,-580.5 1039,-586.5 1033,-592.5 1027,-592.5 1027,-592.5 810,-592.5 810,-592.5 804,-592.5 798,-586.5 798,-580.5 798,-580.5 798,-495.5 798,-495.5 798,-489.5 804,-483.5 810,-483.5"/>
<text text-anchor="middle" x="918.5" y="-577.3" font-family="Times,serif" font-size="14.00">Users::ConfirmationsController</text>
<polyline fill="none" stroke="black" points="798,-569.5 1039,-569.5 "/>
<polyline fill="none" stroke="black" points="798,-545.5 1039,-545.5 "/>
<polyline fill="none" stroke="black" points="798,-521.5 1039,-521.5 "/>
<text text-anchor="start" x="806" y="-506.3" font-family="Times,serif" font-size="14.00">_layout</text>
<text text-anchor="start" x="806" y="-491.3" font-family="Times,serif" font-size="14.00">_layout_from_proc</text>
</g>
<!-- Users::OmniauthCallbacksController -->
<g id="node9" class="node">
<title>Users::OmniauthCallbacksController</title>
<path fill="none" stroke="black" d="M663,-336.5C663,-336.5 918,-336.5 918,-336.5 924,-336.5 930,-342.5 930,-348.5 930,-348.5 930,-433.5 930,-433.5 930,-439.5 924,-445.5 918,-445.5 918,-445.5 663,-445.5 663,-445.5 657,-445.5 651,-439.5 651,-433.5 651,-433.5 651,-348.5 651,-348.5 651,-342.5 657,-336.5 663,-336.5"/>
<text text-anchor="middle" x="790.5" y="-430.3" font-family="Times,serif" font-size="14.00">Users::OmniauthCallbacksController</text>
<polyline fill="none" stroke="black" points="651,-422.5 930,-422.5 "/>
<polyline fill="none" stroke="black" points="651,-398.5 930,-398.5 "/>
<polyline fill="none" stroke="black" points="651,-374.5 930,-374.5 "/>
<text text-anchor="start" x="659" y="-359.3" font-family="Times,serif" font-size="14.00">_layout</text>
<text text-anchor="start" x="659" y="-344.3" font-family="Times,serif" font-size="14.00">_layout_from_proc</text>
</g>
<!-- Users::PasswordsController -->
<g id="node10" class="node">
<title>Users::PasswordsController</title>
<path fill="none" stroke="black" d="M33,-0.5C33,-0.5 225,-0.5 225,-0.5 231,-0.5 237,-6.5 237,-12.5 237,-12.5 237,-97.5 237,-97.5 237,-103.5 231,-109.5 225,-109.5 225,-109.5 33,-109.5 33,-109.5 27,-109.5 21,-103.5 21,-97.5 21,-97.5 21,-12.5 21,-12.5 21,-6.5 27,-0.5 33,-0.5"/>
<text text-anchor="middle" x="129" y="-94.3" font-family="Times,serif" font-size="14.00">Users::PasswordsController</text>
<polyline fill="none" stroke="black" points="21,-86.5 237,-86.5 "/>
<polyline fill="none" stroke="black" points="21,-62.5 237,-62.5 "/>
<polyline fill="none" stroke="black" points="21,-38.5 237,-38.5 "/>
<text text-anchor="start" x="29" y="-23.3" font-family="Times,serif" font-size="14.00">_layout</text>
<text text-anchor="start" x="29" y="-8.3" font-family="Times,serif" font-size="14.00">_layout_from_proc</text>
</g>
<!-- Users::RegistrationsController -->
<g id="node11" class="node">
<title>Users::RegistrationsController</title>
<path fill="none" stroke="black" d="M516,-483.5C516,-483.5 754,-483.5 754,-483.5 760,-483.5 766,-489.5 766,-495.5 766,-495.5 766,-625.5 766,-625.5 766,-631.5 760,-637.5 754,-637.5 754,-637.5 516,-637.5 516,-637.5 510,-637.5 504,-631.5 504,-625.5 504,-625.5 504,-495.5 504,-495.5 504,-489.5 510,-483.5 516,-483.5"/>
<text text-anchor="middle" x="635" y="-622.3" font-family="Times,serif" font-size="14.00">Users::RegistrationsController</text>
<polyline fill="none" stroke="black" points="504,-614.5 766,-614.5 "/>
<polyline fill="none" stroke="black" points="504,-590.5 766,-590.5 "/>
<polyline fill="none" stroke="black" points="504,-566.5 766,-566.5 "/>
<text text-anchor="start" x="512" y="-551.3" font-family="Times,serif" font-size="14.00">_layout</text>
<text text-anchor="start" x="512" y="-536.3" font-family="Times,serif" font-size="14.00">_layout_from_proc</text>
<text text-anchor="start" x="512" y="-521.3" font-family="Times,serif" font-size="14.00">after_sign_up_path_for</text>
<text text-anchor="start" x="512" y="-506.3" font-family="Times,serif" font-size="14.00">configure_account_update_params</text>
<text text-anchor="start" x="512" y="-491.3" font-family="Times,serif" font-size="14.00">configure_sign_up_params</text>
</g>
<!-- Users::SessionsController -->
<g id="node12" class="node">
<title>Users::SessionsController</title>
<path fill="none" stroke="black" d="M75,-567.5C75,-567.5 254,-567.5 254,-567.5 260,-567.5 266,-573.5 266,-579.5 266,-579.5 266,-708.5 266,-708.5 266,-714.5 260,-720.5 254,-720.5 254,-720.5 75,-720.5 75,-720.5 69,-720.5 63,-714.5 63,-708.5 63,-708.5 63,-579.5 63,-579.5 63,-573.5 69,-567.5 75,-567.5"/>
<text text-anchor="middle" x="164.5" y="-705.3" font-family="Times,serif" font-size="14.00">Users::SessionsController</text>
<polyline fill="none" stroke="black" points="63,-697.5 266,-697.5 "/>
<text text-anchor="start" x="71" y="-682.3" font-family="Times,serif" font-size="14.00">create</text>
<text text-anchor="start" x="71" y="-667.3" font-family="Times,serif" font-size="14.00">new</text>
<polyline fill="none" stroke="black" points="63,-659.5 266,-659.5 "/>
<polyline fill="none" stroke="black" points="63,-635.5 266,-635.5 "/>
<text text-anchor="start" x="71" y="-620.3" font-family="Times,serif" font-size="14.00">_layout</text>
<text text-anchor="start" x="71" y="-605.3" font-family="Times,serif" font-size="14.00">_layout_from_proc</text>
<text text-anchor="start" x="71" y="-590.3" font-family="Times,serif" font-size="14.00">after_sign_in_path_for</text>
<text text-anchor="start" x="71" y="-575.3" font-family="Times,serif" font-size="14.00">after_sign_out_path_for</text>
</g>
<!-- Users::UnlocksController -->
<g id="node13" class="node">
<title>Users::UnlocksController</title>
<path fill="none" stroke="black" d="M873,-840.5C873,-840.5 1046,-840.5 1046,-840.5 1052,-840.5 1058,-846.5 1058,-852.5 1058,-852.5 1058,-937.5 1058,-937.5 1058,-943.5 1052,-949.5 1046,-949.5 1046,-949.5 873,-949.5 873,-949.5 867,-949.5 861,-943.5 861,-937.5 861,-937.5 861,-852.5 861,-852.5 861,-846.5 867,-840.5 873,-840.5"/>
<text text-anchor="middle" x="959.5" y="-934.3" font-family="Times,serif" font-size="14.00">Users::UnlocksController</text>
<polyline fill="none" stroke="black" points="861,-926.5 1058,-926.5 "/>
<polyline fill="none" stroke="black" points="861,-902.5 1058,-902.5 "/>
<polyline fill="none" stroke="black" points="861,-878.5 1058,-878.5 "/>
<text text-anchor="start" x="869" y="-863.3" font-family="Times,serif" font-size="14.00">_layout</text>
<text text-anchor="start" x="869" y="-848.3" font-family="Times,serif" font-size="14.00">_layout_from_proc</text>
</g>
<!-- Webauthn::Authentications::ChallengesController -->
<g id="node14" class="node">
<title>Webauthn::Authentications::ChallengesController</title>
<path fill="none" stroke="black" d="M243,-336.5C243,-336.5 590,-336.5 590,-336.5 596,-336.5 602,-342.5 602,-348.5 602,-348.5 602,-432.5 602,-432.5 602,-438.5 596,-444.5 590,-444.5 590,-444.5 243,-444.5 243,-444.5 237,-444.5 231,-438.5 231,-432.5 231,-432.5 231,-348.5 231,-348.5 231,-342.5 237,-336.5 243,-336.5"/>
<text text-anchor="middle" x="416.5" y="-429.3" font-family="Times,serif" font-size="14.00">Webauthn::Authentications::ChallengesController</text>
<polyline fill="none" stroke="black" points="231,-421.5 602,-421.5 "/>
<text text-anchor="start" x="239" y="-406.3" font-family="Times,serif" font-size="14.00">create</text>
<polyline fill="none" stroke="black" points="231,-398.5 602,-398.5 "/>
<polyline fill="none" stroke="black" points="231,-374.5 602,-374.5 "/>
<text text-anchor="start" x="239" y="-359.3" font-family="Times,serif" font-size="14.00">_layout</text>
<text text-anchor="start" x="239" y="-344.3" font-family="Times,serif" font-size="14.00">_layout_from_proc</text>
</g>
<!-- Webauthn::AuthenticationsController -->
<g id="node15" class="node">
<title>Webauthn::AuthenticationsController</title>
<path fill="none" stroke="black" d="M705,-672.5C705,-672.5 964,-672.5 964,-672.5 970,-672.5 976,-678.5 976,-684.5 976,-684.5 976,-783.5 976,-783.5 976,-789.5 970,-795.5 964,-795.5 964,-795.5 705,-795.5 705,-795.5 699,-795.5 693,-789.5 693,-783.5 693,-783.5 693,-684.5 693,-684.5 693,-678.5 699,-672.5 705,-672.5"/>
<text text-anchor="middle" x="834.5" y="-780.3" font-family="Times,serif" font-size="14.00">Webauthn::AuthenticationsController</text>
<polyline fill="none" stroke="black" points="693,-772.5 976,-772.5 "/>
<text text-anchor="start" x="701" y="-757.3" font-family="Times,serif" font-size="14.00">create</text>
<text text-anchor="start" x="701" y="-742.3" font-family="Times,serif" font-size="14.00">index</text>
<polyline fill="none" stroke="black" points="693,-734.5 976,-734.5 "/>
<polyline fill="none" stroke="black" points="693,-710.5 976,-710.5 "/>
<text text-anchor="start" x="701" y="-695.3" font-family="Times,serif" font-size="14.00">_layout</text>
<text text-anchor="start" x="701" y="-680.3" font-family="Times,serif" font-size="14.00">_layout_from_proc</text>
</g>
<!-- Webauthn::Credentials::ChallengesController -->
<g id="node16" class="node">
<title>Webauthn::Credentials::ChallengesController</title>
<path fill="none" stroke="black" d="M432,-189.5C432,-189.5 749,-189.5 749,-189.5 755,-189.5 761,-195.5 761,-201.5 761,-201.5 761,-285.5 761,-285.5 761,-291.5 755,-297.5 749,-297.5 749,-297.5 432,-297.5 432,-297.5 426,-297.5 420,-291.5 420,-285.5 420,-285.5 420,-201.5 420,-201.5 420,-195.5 426,-189.5 432,-189.5"/>
<text text-anchor="middle" x="590.5" y="-282.3" font-family="Times,serif" font-size="14.00">Webauthn::Credentials::ChallengesController</text>
<polyline fill="none" stroke="black" points="420,-274.5 761,-274.5 "/>
<text text-anchor="start" x="428" y="-259.3" font-family="Times,serif" font-size="14.00">create</text>
<polyline fill="none" stroke="black" points="420,-251.5 761,-251.5 "/>
<polyline fill="none" stroke="black" points="420,-227.5 761,-227.5 "/>
<text text-anchor="start" x="428" y="-212.3" font-family="Times,serif" font-size="14.00">_layout</text>
<text text-anchor="start" x="428" y="-197.3" font-family="Times,serif" font-size="14.00">_layout_from_proc</text>
</g>
<!-- Webauthn::CredentialsController -->
<g id="node17" class="node">
<title>Webauthn::CredentialsController</title>
<path fill="none" stroke="black" d="M138,-147.5C138,-147.5 367,-147.5 367,-147.5 373,-147.5 379,-153.5 379,-159.5 379,-159.5 379,-273.5 379,-273.5 379,-279.5 373,-285.5 367,-285.5 367,-285.5 138,-285.5 138,-285.5 132,-285.5 126,-279.5 126,-273.5 126,-273.5 126,-159.5 126,-159.5 126,-153.5 132,-147.5 138,-147.5"/>
<text text-anchor="middle" x="252.5" y="-270.3" font-family="Times,serif" font-size="14.00">Webauthn::CredentialsController</text>
<polyline fill="none" stroke="black" points="126,-262.5 379,-262.5 "/>
<text text-anchor="start" x="134" y="-247.3" font-family="Times,serif" font-size="14.00">create</text>
<text text-anchor="start" x="134" y="-232.3" font-family="Times,serif" font-size="14.00">destroy</text>
<text text-anchor="start" x="134" y="-217.3" font-family="Times,serif" font-size="14.00">index</text>
<polyline fill="none" stroke="black" points="126,-209.5 379,-209.5 "/>
<polyline fill="none" stroke="black" points="126,-185.5 379,-185.5 "/>
<text text-anchor="start" x="134" y="-170.3" font-family="Times,serif" font-size="14.00">_layout</text>
<text text-anchor="start" x="134" y="-155.3" font-family="Times,serif" font-size="14.00">_layout_from_proc</text>
</g>
</g>
</svg>
