<?xml version="1.0" encoding="UTF-8" standalone="no"?>
<!DOCTYPE svg PUBLIC "-//W3C//DTD SVG 1.1//EN"
 "http://www.w3.org/Graphics/SVG/1.1/DTD/svg11.dtd">
<!-- Generated by graphviz version 2.43.0 (0)
 -->
<!-- Title: models_diagram Pages: 1 -->
<svg width="1321pt" height="479pt"
 viewBox="0.00 0.00 1320.69 479.00" xmlns="http://www.w3.org/2000/svg" xmlns:xlink="http://www.w3.org/1999/xlink">
<g id="graph0" class="graph" transform="scale(1 1) rotate(0) translate(4 475)">
<title>models_diagram</title>
<polygon fill="transparent" stroke="transparent" points="-4,4 -4,-475 1316.69,-475 1316.69,4 -4,4"/>
<!-- _diagram_info -->
<g id="node1" class="node">
<title>_diagram_info</title>
<text text-anchor="start" x="59.19" y="-456.6" font-family="Times,serif" font-size="13.00">Models diagram</text>
<text text-anchor="start" x="59.19" y="-442.6" font-family="Times,serif" font-size="13.00">Date: Jan 11 2025 &#45; 13:24</text>
<text text-anchor="start" x="59.19" y="-428.6" font-family="Times,serif" font-size="13.00">Migration version: 20250107070727</text>
<text text-anchor="start" x="59.19" y="-414.6" font-family="Times,serif" font-size="13.00">Generated by RailRoady 1.6.0</text>
<text text-anchor="start" x="59.19" y="-400.6" font-family="Times,serif" font-size="13.00">http://railroady.prestonlee.com</text>
</g>
<!-- ApplicationRecord -->
<g id="node2" class="node">
<title>ApplicationRecord</title>
<ellipse fill="none" stroke="black" cx="423.69" cy="-432" rx="95.58" ry="18"/>
<text text-anchor="middle" x="423.69" y="-428.3" font-family="Times,serif" font-size="14.00">ApplicationRecord</text>
</g>
<!-- Chat -->
<g id="node3" class="node">
<title>Chat</title>
<ellipse fill="none" stroke="black" cx="569.69" cy="-432" rx="32.49" ry="18"/>
<text text-anchor="middle" x="569.69" y="-428.3" font-family="Times,serif" font-size="14.00">Chat</text>
</g>
<!-- Message -->
<g id="node8" class="node">
<title>Message</title>
<ellipse fill="none" stroke="black" cx="569.69" cy="-338" rx="51.99" ry="18"/>
<text text-anchor="middle" x="569.69" y="-334.3" font-family="Times,serif" font-size="14.00">Message</text>
</g>
<!-- Chat&#45;&gt;Message -->
<g id="edge3" class="edge">
<title>Chat&#45;&gt;Message</title>
<path fill="none" stroke="#6e9f90" d="M569.69,-403.69C569.69,-391.92 569.69,-378.17 569.69,-366.39"/>
<polygon fill="#6e9f90" stroke="#6e9f90" points="569.69,-403.7 565.19,-413.7 569.69,-408.7 569.69,-413.7 569.69,-413.7 569.69,-413.7 569.69,-408.7 574.19,-413.7 569.69,-403.7 569.69,-403.7"/>
<polygon fill="#6e9f90" stroke="#6e9f90" points="569.69,-366.23 574.19,-356.23 569.69,-361.23 569.69,-356.23 569.69,-356.23 569.69,-356.23 569.69,-361.23 565.19,-356.23 569.69,-366.23 569.69,-366.23"/>
</g>
<!-- User -->
<g id="node11" class="node">
<title>User</title>
<ellipse fill="none" stroke="black" cx="569.69" cy="-265" rx="33.29" ry="18"/>
<text text-anchor="middle" x="569.69" y="-261.3" font-family="Times,serif" font-size="14.00">User</text>
</g>
<!-- Chat&#45;&gt;User -->
<g id="edge1" class="edge">
<title>Chat&#45;&gt;User</title>
<path fill="none" stroke="#8260ce" d="M609.07,-421.72C667.68,-406 767.24,-370.8 730.69,-320 704.1,-283.03 650.97,-271.01 613.02,-267.3"/>
<polygon fill="#8260ce" stroke="#8260ce" points="609.02,-421.73 598.21,-419.9 604.18,-422.99 599.34,-424.25 599.34,-424.25 599.34,-424.25 604.18,-422.99 600.48,-428.61 609.02,-421.73 609.02,-421.73"/>
<polygon fill="#8260ce" stroke="#8260ce" points="612.72,-267.27 603.12,-261.97 607.74,-266.87 602.76,-266.46 602.76,-266.46 602.76,-266.46 607.74,-266.87 602.39,-270.94 612.72,-267.27 612.72,-267.27"/>
<text text-anchor="middle" x="762.19" y="-334.3" font-family="Times,serif" font-size="14.00">sender</text>
</g>
<!-- Chat&#45;&gt;User -->
<g id="edge2" class="edge">
<title>Chat&#45;&gt;User</title>
<path fill="none" stroke="#8f8d7c" d="M549.57,-408.2C543.4,-402.45 536.24,-396.82 528.69,-393 446.86,-351.6 278.6,-391.77 335.69,-320 359.12,-290.54 465.9,-275.78 526.8,-269.63"/>
<polygon fill="#8f8d7c" stroke="#8f8d7c" points="549.73,-408.37 553.61,-418.62 553.26,-411.9 556.8,-415.44 556.8,-415.44 556.8,-415.44 553.26,-411.9 559.98,-412.26 549.73,-408.37 549.73,-408.37"/>
<polygon fill="#8f8d7c" stroke="#8f8d7c" points="526.94,-269.62 537.32,-273.13 531.91,-269.13 536.89,-268.65 536.89,-268.65 536.89,-268.65 531.91,-269.13 536.45,-264.17 526.94,-269.62 526.94,-269.62"/>
<text text-anchor="middle" x="365.19" y="-334.3" font-family="Times,serif" font-size="14.00">receiver</text>
</g>
<!-- Comment -->
<g id="node4" class="node">
<title>Comment</title>
<ellipse fill="none" stroke="black" cx="411.69" cy="-91" rx="55.79" ry="18"/>
<text text-anchor="middle" x="411.69" y="-87.3" font-family="Times,serif" font-size="14.00">Comment</text>
</g>
<!-- Comment&#45;&gt;Comment -->
<g id="edge7" class="edge">
<title>Comment&#45;&gt;Comment</title>
<path fill="none" stroke="#5cd256" d="M473.94,-96.72C481.01,-95.65 485.59,-93.74 485.59,-91 485.59,-88.26 481.01,-86.35 473.94,-85.28"/>
<polygon fill="#5cd256" stroke="#5cd256" points="473.78,-96.74 463.42,-93.15 468.8,-97.18 463.82,-97.63 463.82,-97.63 463.82,-97.63 468.8,-97.18 464.23,-102.11 473.78,-96.74 473.78,-96.74"/>
<polygon fill="#5cd256" stroke="#5cd256" points="473.78,-85.26 464.23,-79.89 468.8,-84.82 463.82,-84.37 463.82,-84.37 463.82,-84.37 468.8,-84.82 463.42,-88.85 473.78,-85.26 473.78,-85.26"/>
</g>
<!-- Post -->
<g id="node9" class="node">
<title>Post</title>
<ellipse fill="none" stroke="black" cx="377.69" cy="-178" rx="30.59" ry="18"/>
<text text-anchor="middle" x="377.69" y="-174.3" font-family="Times,serif" font-size="14.00">Post</text>
</g>
<!-- Comment&#45;&gt;Post -->
<g id="edge5" class="edge">
<title>Comment&#45;&gt;Post</title>
<path fill="none" stroke="#54b5f1" d="M422.41,-118.66C424,-126.45 424.11,-134.8 420.69,-142 417.64,-148.42 412.76,-154.06 407.37,-158.82"/>
<polygon fill="#54b5f1" stroke="#54b5f1" points="422.37,-118.51 423.99,-107.67 421.02,-113.7 419.66,-108.89 419.66,-108.89 419.66,-108.89 421.02,-113.7 415.33,-110.11 422.37,-118.51 422.37,-118.51"/>
<polygon fill="#54b5f1" stroke="#54b5f1" points="407.14,-159 396.49,-161.62 403.2,-162.08 399.26,-165.16 399.26,-165.16 399.26,-165.16 403.2,-162.08 402.03,-168.71 407.14,-159 407.14,-159"/>
</g>
<!-- Comment&#45;&gt;User -->
<g id="edge4" class="edge">
<title>Comment&#45;&gt;User</title>
<path fill="none" stroke="#d09d8d" d="M465.72,-104.17C475.33,-106.02 485.28,-107.73 494.69,-109 524.71,-113.05 745.99,-104.89 766.69,-127 771.25,-131.87 770.51,-136.53 766.69,-142 713.57,-218.1 624.57,-138.44 570.69,-214 566.06,-220.49 564.63,-228.75 564.69,-236.68"/>
<polygon fill="#d09d8d" stroke="#d09d8d" points="465.68,-104.16 456.75,-97.79 460.77,-103.19 455.87,-102.21 455.87,-102.21 455.87,-102.21 460.77,-103.19 454.99,-106.62 465.68,-104.16 465.68,-104.16"/>
<polygon fill="#d09d8d" stroke="#d09d8d" points="564.69,-236.77 561,-247.1 565.09,-241.76 565.48,-246.74 565.48,-246.74 565.48,-246.74 565.09,-241.76 569.97,-246.38 564.69,-236.77 564.69,-236.77"/>
</g>
<!-- Commentable -->
<g id="node13" class="node">
<title>Commentable</title>
<ellipse fill="none" stroke="black" cx="411.69" cy="-18" rx="75.29" ry="18"/>
<text text-anchor="middle" x="411.69" y="-14.3" font-family="Times,serif" font-size="14.00">Commentable</text>
</g>
<!-- Comment&#45;&gt;Commentable -->
<g id="edge6" class="edge">
<title>Comment&#45;&gt;Commentable</title>
<path fill="none" stroke="#8b4524" d="M411.69,-62.75C411.69,-57.28 411.69,-51.52 411.69,-46.05"/>
<polygon fill="#8b4524" stroke="#8b4524" points="411.69,-62.81 407.19,-72.81 411.69,-67.81 411.69,-72.81 411.69,-72.81 411.69,-72.81 411.69,-67.81 416.19,-72.81 411.69,-62.81 411.69,-62.81"/>
<polygon fill="#8b4524" stroke="#8b4524" points="411.69,-46.03 416.19,-36.03 411.69,-41.03 411.69,-36.03 411.69,-36.03 411.69,-36.03 411.69,-41.03 407.19,-36.03 411.69,-46.03 411.69,-46.03"/>
</g>
<!-- Follow -->
<g id="node5" class="node">
<title>Follow</title>
<ellipse fill="none" stroke="black" cx="815.69" cy="-178" rx="40.89" ry="18"/>
<text text-anchor="middle" x="815.69" y="-174.3" font-family="Times,serif" font-size="14.00">Follow</text>
</g>
<!-- Follow&#45;&gt;User -->
<g id="edge8" class="edge">
<title>Follow&#45;&gt;User</title>
<path fill="none" stroke="#983753" d="M790.68,-201.24C777.2,-212.8 761.72,-225.29 753.69,-229 708.51,-249.9 651.55,-258.32 613.07,-261.71"/>
<polygon fill="#983753" stroke="#983753" points="790.77,-201.17 801.27,-198.01 794.54,-197.89 798.32,-194.61 798.32,-194.61 798.32,-194.61 794.54,-197.89 795.37,-191.21 790.77,-201.17 790.77,-201.17"/>
<polygon fill="#983753" stroke="#983753" points="612.7,-261.74 602.37,-258.06 607.72,-262.14 602.73,-262.54 602.73,-262.54 602.73,-262.54 607.72,-262.14 603.09,-267.03 612.7,-261.74 612.7,-261.74"/>
<text text-anchor="middle" x="802.69" y="-217.8" font-family="Times,serif" font-size="14.00">follower</text>
</g>
<!-- Follow&#45;&gt;User -->
<g id="edge9" class="edge">
<title>Follow&#45;&gt;User</title>
<path fill="none" stroke="#af4660" d="M834.96,-204.05C839.22,-212.69 840.87,-221.95 834.69,-229 806.45,-261.21 681.12,-265.17 613.42,-264.87"/>
<polygon fill="#af4660" stroke="#af4660" points="834.92,-203.98 833.65,-193.09 832.35,-199.69 829.79,-195.4 829.79,-195.4 829.79,-195.4 832.35,-199.69 825.93,-197.71 834.92,-203.98 834.92,-203.98"/>
<polygon fill="#af4660" stroke="#af4660" points="613.07,-264.86 603.11,-260.29 608.07,-264.83 603.07,-264.79 603.07,-264.79 603.07,-264.79 608.07,-264.83 603.04,-269.29 613.07,-264.86 613.07,-264.86"/>
<text text-anchor="middle" x="869.19" y="-217.8" font-family="Times,serif" font-size="14.00">followed</text>
</g>
<!-- Interest -->
<g id="node6" class="node">
<title>Interest</title>
<ellipse fill="none" stroke="black" cx="451.69" cy="-338" rx="48.19" ry="18"/>
<text text-anchor="middle" x="451.69" y="-334.3" font-family="Times,serif" font-size="14.00">Interest</text>
</g>
<!-- Interest&#45;&gt;User -->
<g id="edge10" class="edge">
<title>Interest&#45;&gt;User</title>
<path fill="none" stroke="#c2d711" d="M484.75,-317.11C501.84,-306.83 522.55,-294.37 539.24,-284.32"/>
<polygon fill="#c2d711" stroke="#c2d711" points="484.71,-317.13 473.82,-318.43 480.42,-319.71 476.14,-322.29 476.14,-322.29 476.14,-322.29 480.42,-319.71 478.46,-326.14 484.71,-317.13 484.71,-317.13"/>
<polygon fill="#c2d711" stroke="#c2d711" points="539.48,-284.18 550.37,-282.88 543.77,-281.6 548.05,-279.02 548.05,-279.02 548.05,-279.02 543.77,-281.6 545.73,-275.17 539.48,-284.18 539.48,-284.18"/>
</g>
<!-- Like -->
<g id="node7" class="node">
<title>Like</title>
<ellipse fill="none" stroke="black" cx="212.69" cy="-338" rx="30.59" ry="18"/>
<text text-anchor="middle" x="212.69" y="-334.3" font-family="Times,serif" font-size="14.00">Like</text>
</g>
<!-- Like&#45;&gt;Post -->
<g id="edge12" class="edge">
<title>Like&#45;&gt;Post</title>
<path fill="none" stroke="#7f98fa" d="M231.06,-313.15C251.84,-287.05 287.54,-244.81 323.69,-214 331.06,-207.72 339.63,-201.68 347.74,-196.44"/>
<polygon fill="#7f98fa" stroke="#7f98fa" points="231.04,-313.18 221.31,-318.24 227.94,-317.1 224.85,-321.03 224.85,-321.03 224.85,-321.03 227.94,-317.1 228.38,-323.81 231.04,-313.18 231.04,-313.18"/>
<polygon fill="#7f98fa" stroke="#7f98fa" points="347.8,-196.4 358.67,-194.91 352.04,-193.74 356.28,-191.09 356.28,-191.09 356.28,-191.09 352.04,-193.74 353.89,-187.28 347.8,-196.4 347.8,-196.4"/>
</g>
<!-- Like&#45;&gt;User -->
<g id="edge11" class="edge">
<title>Like&#45;&gt;User</title>
<path fill="none" stroke="#f7c33b" d="M246.38,-322.87C265.52,-315.35 290.1,-306.54 312.69,-301 386.75,-282.84 475.28,-273.39 526.73,-269.07"/>
<polygon fill="#f7c33b" stroke="#f7c33b" points="246.19,-322.94 235.23,-322.48 241.55,-324.8 236.91,-326.66 236.91,-326.66 236.91,-326.66 241.55,-324.8 238.58,-330.83 246.19,-322.94 246.19,-322.94"/>
<polygon fill="#f7c33b" stroke="#f7c33b" points="526.86,-269.06 537.19,-272.74 531.84,-268.66 536.82,-268.25 536.82,-268.25 536.82,-268.25 531.84,-268.66 536.46,-263.77 526.86,-269.06 526.86,-269.06"/>
</g>
<!-- Message&#45;&gt;User -->
<g id="edge13" class="edge">
<title>Message&#45;&gt;User</title>
<path fill="none" stroke="#25412a" d="M569.69,-309.75C569.69,-304.28 569.69,-298.52 569.69,-293.05"/>
<polygon fill="#25412a" stroke="#25412a" points="569.69,-309.81 565.19,-319.81 569.69,-314.81 569.69,-319.81 569.69,-319.81 569.69,-319.81 569.69,-314.81 574.19,-319.81 569.69,-309.81 569.69,-309.81"/>
<polygon fill="#25412a" stroke="#25412a" points="569.69,-293.03 574.19,-283.03 569.69,-288.03 569.69,-283.03 569.69,-283.03 569.69,-283.03 569.69,-288.03 565.19,-283.03 569.69,-293.03 569.69,-293.03"/>
</g>
<!-- Post&#45;&gt;Comment -->
<g id="edge19" class="edge">
<title>Post&#45;&gt;Comment</title>
<path fill="none" stroke="#159f3d" d="M342.82,-163.6C324.81,-154.58 308.54,-141.67 318.69,-127 326.67,-115.47 338.96,-107.74 352.01,-102.55"/>
<polygon fill="#159f3d" stroke="#159f3d" points="343.18,-163.77 350.37,-172.04 347.72,-165.86 352.26,-167.96 352.26,-167.96 352.26,-167.96 347.72,-165.86 354.14,-163.87 343.18,-163.77 343.18,-163.77"/>
<polygon fill="#159f3d" stroke="#159f3d" points="352.16,-102.49 363.08,-103.45 356.88,-100.85 361.6,-99.2 361.6,-99.2 361.6,-99.2 356.88,-100.85 360.12,-94.95 352.16,-102.49 352.16,-102.49"/>
<text text-anchor="middle" x="367.69" y="-130.8" font-family="Times,serif" font-size="14.00">all_comments</text>
</g>
<!-- Post&#45;&gt;User -->
<g id="edge18" class="edge">
<title>Post&#45;&gt;User</title>
<path fill="none" stroke="#3d9b41" d="M346.01,-195.83C332.09,-205.38 320.89,-217.65 330.69,-229 355.45,-257.64 464.17,-263.29 526.1,-264.14"/>
<polygon fill="#3d9b41" stroke="#3d9b41" points="346.39,-195.59 357.25,-194.08 350.63,-192.93 354.86,-190.27 354.86,-190.27 354.86,-190.27 350.63,-192.93 352.47,-186.46 346.39,-195.59 346.39,-195.59"/>
<polygon fill="#3d9b41" stroke="#3d9b41" points="526.36,-264.14 536.31,-268.74 531.36,-264.19 536.36,-264.24 536.36,-264.24 536.36,-264.24 531.36,-264.19 536.4,-259.74 526.36,-264.14 526.36,-264.14"/>
<text text-anchor="middle" x="371.19" y="-217.8" font-family="Times,serif" font-size="14.00">users_liked</text>
</g>
<!-- Post&#45;&gt;User -->
<g id="edge20" class="edge">
<title>Post&#45;&gt;User</title>
<path fill="none" stroke="#9434f7" d="M400.25,-201.01C411.36,-210.8 425.41,-221.73 439.69,-229 467.55,-243.18 501.78,-252.1 528.13,-257.38"/>
<polygon fill="#9434f7" stroke="#9434f7" points="400.11,-200.88 395.75,-190.82 396.42,-197.52 392.72,-194.15 392.72,-194.15 392.72,-194.15 396.42,-197.52 389.69,-197.48 400.11,-200.88 400.11,-200.88"/>
<polygon fill="#9434f7" stroke="#9434f7" points="528.34,-257.42 537.32,-263.72 533.25,-258.36 538.17,-259.29 538.17,-259.29 538.17,-259.29 533.25,-258.36 539.01,-254.87 528.34,-257.42 528.34,-257.42"/>
</g>
<!-- ActiveStorage::Attachment -->
<g id="node14" class="node">
<title>ActiveStorage::Attachment</title>
<ellipse fill="none" stroke="black" cx="639.69" cy="-91" rx="135.68" ry="18"/>
<text text-anchor="middle" x="639.69" y="-87.3" font-family="Times,serif" font-size="14.00">ActiveStorage::Attachment</text>
</g>
<!-- Post&#45;&gt;ActiveStorage::Attachment -->
<g id="edge14" class="edge">
<title>Post&#45;&gt;ActiveStorage::Attachment</title>
<path fill="none" stroke="#a50893" d="M407.15,-159.56C428.76,-147 456.4,-131.52 468.69,-127 491.81,-118.5 517.5,-111.87 541.78,-106.78"/>
<polygon fill="#a50893" stroke="#a50893" points="406.95,-159.67 396.05,-160.83 402.63,-162.2 398.32,-164.72 398.32,-164.72 398.32,-164.72 402.63,-162.2 400.59,-168.6 406.95,-159.67 406.95,-159.67"/>
<polygon fill="#a50893" stroke="#a50893" points="541.93,-106.75 552.62,-109.17 546.83,-105.76 551.73,-104.76 551.73,-104.76 551.73,-104.76 546.83,-105.76 550.83,-100.35 541.93,-106.75 541.93,-106.75"/>
<text text-anchor="middle" x="532.19" y="-130.8" font-family="Times,serif" font-size="14.00">video_attachment</text>
</g>
<!-- Post&#45;&gt;ActiveStorage::Attachment -->
<g id="edge16" class="edge">
<title>Post&#45;&gt;ActiveStorage::Attachment</title>
<path fill="none" stroke="#de85aa" d="M417.73,-173.82C472.07,-168.97 565.82,-158.48 595.69,-142 606.39,-136.1 615.75,-126.55 623.06,-117.37"/>
<polygon fill="#de85aa" stroke="#de85aa" points="417.7,-173.83 407.35,-170.21 412.72,-174.26 407.74,-174.69 407.74,-174.69 407.74,-174.69 412.72,-174.26 408.13,-179.18 417.7,-173.83 417.7,-173.83"/>
<polygon fill="#de85aa" stroke="#de85aa" points="623.2,-117.18 632.78,-111.85 626.18,-113.17 629.17,-109.16 629.17,-109.16 629.17,-109.16 626.18,-113.17 625.56,-106.48 623.2,-117.18 623.2,-117.18"/>
<text text-anchor="middle" x="688.69" y="-130.8" font-family="Times,serif" font-size="14.00">images_attachments</text>
</g>
<!-- ActiveStorage::Blob -->
<g id="node15" class="node">
<title>ActiveStorage::Blob</title>
<ellipse fill="none" stroke="black" cx="102.69" cy="-91" rx="102.88" ry="18"/>
<text text-anchor="middle" x="102.69" y="-87.3" font-family="Times,serif" font-size="14.00">ActiveStorage::Blob</text>
</g>
<!-- Post&#45;&gt;ActiveStorage::Blob -->
<g id="edge15" class="edge">
<title>Post&#45;&gt;ActiveStorage::Blob</title>
<path fill="none" stroke="#c1b194" d="M338.93,-169.24C310.11,-163.04 270,-153.49 235.69,-142 219.64,-136.62 216.45,-133.18 200.69,-127 186.62,-121.48 171.27,-115.82 156.99,-110.72"/>
<polygon fill="#c1b194" stroke="#c1b194" points="339.23,-169.3 348.08,-175.77 344.12,-170.34 349.01,-171.37 349.01,-171.37 349.01,-171.37 344.12,-170.34 349.94,-166.97 339.23,-169.3 339.23,-169.3"/>
<polygon fill="#c1b194" stroke="#c1b194" points="156.73,-110.62 148.81,-103.04 152.01,-108.95 147.3,-107.28 147.3,-107.28 147.3,-107.28 152.01,-108.95 145.8,-111.52 156.73,-110.62 156.73,-110.62"/>
<text text-anchor="middle" x="273.69" y="-130.8" font-family="Times,serif" font-size="14.00">video_blob</text>
</g>
<!-- Post&#45;&gt;ActiveStorage::Blob -->
<g id="edge17" class="edge">
<title>Post&#45;&gt;ActiveStorage::Blob</title>
<path fill="none" stroke="#6a229e" d="M336.94,-174.8C263.5,-170.42 115.12,-159.49 99.69,-142 94.27,-135.86 93.25,-127.46 94.12,-119.3"/>
<polygon fill="#6a229e" stroke="#6a229e" points="337.22,-174.82 346.94,-179.89 342.21,-175.11 347.2,-175.4 347.2,-175.4 347.2,-175.4 342.21,-175.11 347.47,-170.91 337.22,-174.82 337.22,-174.82"/>
<polygon fill="#6a229e" stroke="#6a229e" points="94.16,-119.11 100.46,-110.14 95.1,-114.2 96.04,-109.29 96.04,-109.29 96.04,-109.29 95.1,-114.2 91.63,-108.44 94.16,-119.11 94.16,-119.11"/>
<text text-anchor="middle" x="148.19" y="-130.8" font-family="Times,serif" font-size="14.00">images_blobs</text>
</g>
<!-- Profile -->
<g id="node10" class="node">
<title>Profile</title>
<ellipse fill="none" stroke="black" cx="680.69" cy="-338" rx="40.89" ry="18"/>
<text text-anchor="middle" x="680.69" y="-334.3" font-family="Times,serif" font-size="14.00">Profile</text>
</g>
<!-- Profile&#45;&gt;User -->
<g id="edge21" class="edge">
<title>Profile&#45;&gt;User</title>
<path fill="none" stroke="#8dce80" d="M649.89,-317.3C634.02,-307.15 614.77,-294.83 599.1,-284.81"/>
<polygon fill="#8dce80" stroke="#8dce80" points="650.07,-317.41 656.07,-326.59 654.28,-320.11 658.5,-322.8 658.5,-322.8 658.5,-322.8 654.28,-320.11 660.92,-319.01 650.07,-317.41 650.07,-317.41"/>
<polygon fill="#8dce80" stroke="#8dce80" points="598.77,-284.6 592.77,-275.42 594.56,-281.91 590.35,-279.21 590.35,-279.21 590.35,-279.21 594.56,-281.91 587.92,-283 598.77,-284.6 598.77,-284.6"/>
</g>
<!-- User&#45;&gt;Follow -->
<g id="edge26" class="edge">
<title>User&#45;&gt;Follow</title>
<path fill="none" stroke="#34be38" d="M612.89,-262.64C698.81,-259.47 884.56,-250.24 903.69,-229 920.44,-210.41 891.32,-197.03 862.19,-188.82"/>
<polygon fill="#34be38" stroke="#34be38" points="612.67,-262.64 602.52,-258.5 607.67,-262.82 602.68,-263 602.68,-263 602.68,-263 607.67,-262.82 602.84,-267.5 612.67,-262.64 612.67,-262.64"/>
<polygon fill="#34be38" stroke="#34be38" points="862.04,-188.78 853.52,-181.88 857.21,-187.5 852.37,-186.23 852.37,-186.23 852.37,-186.23 857.21,-187.5 851.23,-190.58 862.04,-188.78 862.04,-188.78"/>
<text text-anchor="middle" x="986.69" y="-217.8" font-family="Times,serif" font-size="14.00">follower_relationships</text>
</g>
<!-- User&#45;&gt;Follow -->
<g id="edge28" class="edge">
<title>User&#45;&gt;Follow</title>
<path fill="none" stroke="#038b9f" d="M571.62,-236.72C573.57,-228.32 577.16,-219.77 583.69,-214 597.12,-202.13 701.69,-190.05 765.77,-183.65"/>
<polygon fill="#038b9f" stroke="#038b9f" points="571.6,-236.82 565.54,-245.96 570.79,-241.76 569.98,-246.69 569.98,-246.69 569.98,-246.69 570.79,-241.76 574.42,-247.42 571.6,-236.82 571.6,-236.82"/>
<polygon fill="#038b9f" stroke="#038b9f" points="766.12,-183.61 776.51,-187.11 771.09,-183.12 776.07,-182.63 776.07,-182.63 776.07,-182.63 771.09,-183.12 775.63,-178.15 766.12,-183.61 766.12,-183.61"/>
<text text-anchor="middle" x="666.69" y="-217.8" font-family="Times,serif" font-size="14.00">following_relationships</text>
</g>
<!-- User&#45;&gt;Post -->
<g id="edge25" class="edge">
<title>User&#45;&gt;Post</title>
<path fill="none" stroke="#f988bf" d="M530.18,-254.22C508.79,-248.24 482.2,-239.68 459.69,-229 448.66,-223.77 447.05,-220.45 436.69,-214 427.27,-208.13 416.88,-201.9 407.49,-196.34"/>
<polygon fill="#f988bf" stroke="#f988bf" points="530.27,-254.24 538.74,-261.21 535.1,-255.56 539.92,-256.87 539.92,-256.87 539.92,-256.87 535.1,-255.56 541.1,-252.52 530.27,-254.24 530.27,-254.24"/>
<polygon fill="#f988bf" stroke="#f988bf" points="407.47,-196.33 401.13,-187.38 403.16,-193.79 398.85,-191.26 398.85,-191.26 398.85,-191.26 403.16,-193.79 396.56,-195.14 407.47,-196.33 407.47,-196.33"/>
<text text-anchor="middle" x="499.69" y="-217.8" font-family="Times,serif" font-size="14.00">posts_liked</text>
</g>
<!-- User&#45;&gt;User -->
<g id="edge27" class="edge">
<title>User&#45;&gt;User</title>
<path fill="none" stroke="#480a5a" d="M612.88,-267.85C617.71,-267.31 620.84,-266.36 620.84,-265 620.84,-263.64 617.71,-262.69 612.88,-262.15"/>
<polygon fill="#480a5a" stroke="#480a5a" points="612.64,-267.86 602.42,-263.88 607.64,-268.12 602.65,-268.37 602.65,-268.37 602.65,-268.37 607.64,-268.12 602.88,-272.87 612.64,-267.86 612.64,-267.86"/>
<polygon fill="#480a5a" stroke="#480a5a" points="612.64,-262.14 602.88,-257.13 607.64,-261.88 602.65,-261.63 602.65,-261.63 602.65,-261.63 607.64,-261.88 602.42,-266.12 612.64,-262.14 612.64,-262.14"/>
<text text-anchor="middle" x="653.84" y="-261.3" font-family="Times,serif" font-size="14.00">followers</text>
</g>
<!-- User&#45;&gt;User -->
<g id="edge29" class="edge">
<title>User&#45;&gt;User</title>
<path fill="none" stroke="#d12c29" d="M611.43,-271.06C645.91,-272.96 686.84,-270.94 686.84,-265 686.84,-259.06 645.91,-257.04 611.43,-258.94"/>
<polygon fill="#d12c29" stroke="#d12c29" points="611.43,-271.06 601.75,-265.9 606.44,-270.73 601.45,-270.39 601.45,-270.39 601.45,-270.39 606.44,-270.73 601.15,-274.88 611.43,-271.06 611.43,-271.06"/>
<polygon fill="#d12c29" stroke="#d12c29" points="611.43,-258.94 601.15,-255.12 606.44,-259.27 601.45,-259.61 601.45,-259.61 601.45,-259.61 606.44,-259.27 601.75,-264.1 611.43,-258.94 611.43,-258.94"/>
<text text-anchor="middle" x="723.34" y="-261.3" font-family="Times,serif" font-size="14.00">followings</text>
</g>
<!-- WebauthnCredential -->
<g id="node12" class="node">
<title>WebauthnCredential</title>
<ellipse fill="none" stroke="black" cx="1054.69" cy="-178" rx="106.68" ry="18"/>
<text text-anchor="middle" x="1054.69" y="-174.3" font-family="Times,serif" font-size="14.00">WebauthnCredential</text>
</g>
<!-- User&#45;&gt;WebauthnCredential -->
<g id="edge22" class="edge">
<title>User&#45;&gt;WebauthnCredential</title>
<path fill="none" stroke="#32fa57" d="M613.38,-264.26C729.47,-264.5 1038.9,-262.02 1069.69,-229 1075.71,-222.55 1074.98,-213.77 1071.76,-205.37"/>
<polygon fill="#32fa57" stroke="#32fa57" points="613.09,-264.26 603.1,-259.73 608.09,-264.25 603.09,-264.23 603.09,-264.23 603.09,-264.23 608.09,-264.25 603.07,-268.73 613.09,-264.26 613.09,-264.26"/>
<polygon fill="#32fa57" stroke="#32fa57" points="1071.68,-205.19 1071.35,-194.23 1069.49,-200.69 1067.31,-196.19 1067.31,-196.19 1067.31,-196.19 1069.49,-200.69 1063.26,-198.16 1071.68,-205.19 1071.68,-205.19"/>
</g>
<!-- User&#45;&gt;ActiveStorage::Attachment -->
<g id="edge23" class="edge">
<title>User&#45;&gt;ActiveStorage::Attachment</title>
<path fill="none" stroke="#6c15a8" d="M613.15,-262.74C720.52,-259.35 996.1,-248.94 1085.69,-229 1125.25,-220.19 1147.8,-229.44 1170.69,-196 1179.73,-182.8 1181.26,-172.01 1170.69,-160 1144.64,-130.4 919.73,-110.16 771.09,-99.88"/>
<polygon fill="#6c15a8" stroke="#6c15a8" points="612.99,-262.74 602.85,-258.56 607.99,-262.9 602.99,-263.05 602.99,-263.05 602.99,-263.05 607.99,-262.9 603.13,-267.55 612.99,-262.74 612.99,-262.74"/>
<polygon fill="#6c15a8" stroke="#6c15a8" points="770.95,-99.87 761.28,-94.69 765.96,-99.53 760.97,-99.18 760.97,-99.18 760.97,-99.18 765.96,-99.53 760.66,-103.67 770.95,-99.87 770.95,-99.87"/>
<text text-anchor="middle" x="1245.19" y="-174.3" font-family="Times,serif" font-size="14.00">avatar_attachment</text>
</g>
<!-- User&#45;&gt;ActiveStorage::Blob -->
<g id="edge24" class="edge">
<title>User&#45;&gt;ActiveStorage::Blob</title>
<path fill="none" stroke="#f6c20e" d="M527,-260.74C477.5,-256.32 393.75,-246.84 323.69,-229 216.57,-201.72 153.72,-232.81 90.69,-142 85.91,-135.12 86.25,-126.56 88.6,-118.49"/>
<polygon fill="#f6c20e" stroke="#f6c20e" points="527.06,-260.75 536.63,-266.09 532.04,-261.18 537.02,-261.61 537.02,-261.61 537.02,-261.61 532.04,-261.18 537.41,-257.13 527.06,-260.75 527.06,-260.75"/>
<polygon fill="#f6c20e" stroke="#f6c20e" points="88.65,-118.35 96.44,-110.63 90.45,-113.68 92.24,-109.01 92.24,-109.01 92.24,-109.01 90.45,-113.68 88.04,-107.4 88.65,-118.35 88.65,-118.35"/>
<text text-anchor="middle" x="190.69" y="-174.3" font-family="Times,serif" font-size="14.00">avatar_blob</text>
</g>
</g>
</svg>
