<?xml version="1.0" encoding="UTF-8" standalone="no"?>
<!DOCTYPE svg PUBLIC "-//W3C//DTD SVG 1.1//EN"
 "http://www.w3.org/Graphics/SVG/1.1/DTD/svg11.dtd">
<!-- Generated by graphviz version 2.43.0 (0)
 -->
<!-- Title: models_diagram Pages: 1 -->
<svg width="1693pt" height="1122pt"
 viewBox="0.00 0.00 1692.50 1122.00" xmlns="http://www.w3.org/2000/svg" xmlns:xlink="http://www.w3.org/1999/xlink">
<g id="graph0" class="graph" transform="scale(1 1) rotate(0) translate(4 1118)">
<title>models_diagram</title>
<polygon fill="transparent" stroke="transparent" points="-4,4 -4,-1118 1688.5,-1118 1688.5,4 -4,4"/>
<!-- _diagram_info -->
<g id="node1" class="node">
<title>_diagram_info</title>
<text text-anchor="start" x="324" y="-1085.1" font-family="Times,serif" font-size="13.00">Models diagram</text>
<text text-anchor="start" x="324" y="-1071.1" font-family="Times,serif" font-size="13.00">Date: Jan 11 2025 &#45; 13:24</text>
<text text-anchor="start" x="324" y="-1057.1" font-family="Times,serif" font-size="13.00">Migration version: 20250107070727</text>
<text text-anchor="start" x="324" y="-1043.1" font-family="Times,serif" font-size="13.00">Generated by RailRoady 1.6.0</text>
<text text-anchor="start" x="324" y="-1029.1" font-family="Times,serif" font-size="13.00">http://railroady.prestonlee.com</text>
</g>
<!-- ApplicationRecord -->
<g id="node2" class="node">
<title>ApplicationRecord</title>
<ellipse fill="none" stroke="black" cx="688.5" cy="-1060.5" rx="95.58" ry="18"/>
<text text-anchor="middle" x="688.5" y="-1056.8" font-family="Times,serif" font-size="14.00">ApplicationRecord</text>
</g>
<!-- Chat -->
<g id="node3" class="node">
<title>Chat</title>
<path fill="none" stroke="black" d="M814,-1007.5C814,-1007.5 1125,-1007.5 1125,-1007.5 1131,-1007.5 1137,-1013.5 1137,-1019.5 1137,-1019.5 1137,-1101.5 1137,-1101.5 1137,-1107.5 1131,-1113.5 1125,-1113.5 1125,-1113.5 814,-1113.5 814,-1113.5 808,-1113.5 802,-1107.5 802,-1101.5 802,-1101.5 802,-1019.5 802,-1019.5 802,-1013.5 808,-1007.5 814,-1007.5"/>
<text text-anchor="middle" x="969.5" y="-1098.3" font-family="Times,serif" font-size="14.00">Chat</text>
<polyline fill="none" stroke="black" points="802,-1090.5 1137,-1090.5 "/>
<text text-anchor="start" x="810" y="-1075.3" font-family="Times,serif" font-size="14.00">id :bigint</text>
<text text-anchor="start" x="810" y="-1060.3" font-family="Times,serif" font-size="14.00">sender_id :bigint</text>
<text text-anchor="start" x="810" y="-1045.3" font-family="Times,serif" font-size="14.00">receiver_id :bigint</text>
<text text-anchor="start" x="810" y="-1030.3" font-family="Times,serif" font-size="14.00">created_at :timestamp(6) without time zone</text>
<text text-anchor="start" x="810" y="-1015.3" font-family="Times,serif" font-size="14.00">updated_at :timestamp(6) without time zone</text>
</g>
<!-- Message -->
<g id="node8" class="node">
<title>Message</title>
<path fill="none" stroke="black" d="M814,-803.5C814,-803.5 1125,-803.5 1125,-803.5 1131,-803.5 1137,-809.5 1137,-815.5 1137,-815.5 1137,-912.5 1137,-912.5 1137,-918.5 1131,-924.5 1125,-924.5 1125,-924.5 814,-924.5 814,-924.5 808,-924.5 802,-918.5 802,-912.5 802,-912.5 802,-815.5 802,-815.5 802,-809.5 808,-803.5 814,-803.5"/>
<text text-anchor="middle" x="969.5" y="-909.3" font-family="Times,serif" font-size="14.00">Message</text>
<polyline fill="none" stroke="black" points="802,-901.5 1137,-901.5 "/>
<text text-anchor="start" x="810" y="-886.3" font-family="Times,serif" font-size="14.00">id :bigint</text>
<text text-anchor="start" x="810" y="-871.3" font-family="Times,serif" font-size="14.00">content :text</text>
<text text-anchor="start" x="810" y="-856.3" font-family="Times,serif" font-size="14.00">chat_id :bigint</text>
<text text-anchor="start" x="810" y="-841.3" font-family="Times,serif" font-size="14.00">user_id :bigint</text>
<text text-anchor="start" x="810" y="-826.3" font-family="Times,serif" font-size="14.00">created_at :timestamp(6) without time zone</text>
<text text-anchor="start" x="810" y="-811.3" font-family="Times,serif" font-size="14.00">updated_at :timestamp(6) without time zone</text>
</g>
<!-- Chat&#45;&gt;Message -->
<g id="edge3" class="edge">
<title>Chat&#45;&gt;Message</title>
<path fill="none" stroke="#c3138e" d="M969.5,-997.3C969.5,-977.45 969.5,-955.36 969.5,-934.99"/>
<polygon fill="#c3138e" stroke="#c3138e" points="969.5,-997.38 965,-1007.38 969.5,-1002.38 969.5,-1007.38 969.5,-1007.38 969.5,-1007.38 969.5,-1002.38 974,-1007.38 969.5,-997.38 969.5,-997.38"/>
<polygon fill="#c3138e" stroke="#c3138e" points="969.5,-934.84 974,-924.84 969.5,-929.84 969.5,-924.84 969.5,-924.84 969.5,-924.84 969.5,-929.84 965,-924.84 969.5,-934.84 969.5,-934.84"/>
</g>
<!-- User -->
<g id="node11" class="node">
<title>User</title>
<path fill="none" stroke="black" d="M614,-494.5C614,-494.5 1015,-494.5 1015,-494.5 1021,-494.5 1027,-500.5 1027,-506.5 1027,-506.5 1027,-708.5 1027,-708.5 1027,-714.5 1021,-720.5 1015,-720.5 1015,-720.5 614,-720.5 614,-720.5 608,-720.5 602,-714.5 602,-708.5 602,-708.5 602,-506.5 602,-506.5 602,-500.5 608,-494.5 614,-494.5"/>
<text text-anchor="middle" x="814.5" y="-705.3" font-family="Times,serif" font-size="14.00">User</text>
<polyline fill="none" stroke="black" points="602,-697.5 1027,-697.5 "/>
<text text-anchor="start" x="610" y="-682.3" font-family="Times,serif" font-size="14.00">id :bigint</text>
<text text-anchor="start" x="610" y="-667.3" font-family="Times,serif" font-size="14.00">email :character varying</text>
<text text-anchor="start" x="610" y="-652.3" font-family="Times,serif" font-size="14.00">encrypted_password :character varying</text>
<text text-anchor="start" x="610" y="-637.3" font-family="Times,serif" font-size="14.00">reset_password_token :character varying</text>
<text text-anchor="start" x="610" y="-622.3" font-family="Times,serif" font-size="14.00">reset_password_sent_at :timestamp(6) without time zone</text>
<text text-anchor="start" x="610" y="-607.3" font-family="Times,serif" font-size="14.00">remember_created_at :timestamp(6) without time zone</text>
<text text-anchor="start" x="610" y="-592.3" font-family="Times,serif" font-size="14.00">created_at :timestamp(6) without time zone</text>
<text text-anchor="start" x="610" y="-577.3" font-family="Times,serif" font-size="14.00">updated_at :timestamp(6) without time zone</text>
<text text-anchor="start" x="610" y="-562.3" font-family="Times,serif" font-size="14.00">webauthn_id :character varying</text>
<text text-anchor="start" x="610" y="-547.3" font-family="Times,serif" font-size="14.00">username :character varying</text>
<text text-anchor="start" x="610" y="-532.3" font-family="Times,serif" font-size="14.00">followers_count :integer</text>
<text text-anchor="start" x="610" y="-517.3" font-family="Times,serif" font-size="14.00">followings_count :integer</text>
<text text-anchor="start" x="610" y="-502.3" font-family="Times,serif" font-size="14.00">profile_completed :boolean</text>
</g>
<!-- Chat&#45;&gt;User -->
<g id="edge1" class="edge">
<title>Chat&#45;&gt;User</title>
<path fill="none" stroke="#15922b" d="M1147.3,-1053.43C1283.24,-1044.6 1454.72,-1022.97 1499.5,-970 1560.33,-898.04 1558.6,-831.39 1499.5,-758 1441.95,-686.53 1214.57,-647.39 1037.38,-627.29"/>
<polygon fill="#15922b" stroke="#15922b" points="1147.14,-1053.44 1136.88,-1049.58 1142.15,-1053.75 1137.16,-1054.07 1137.16,-1054.07 1137.16,-1054.07 1142.15,-1053.75 1137.44,-1058.56 1147.14,-1053.44 1147.14,-1053.44"/>
<polygon fill="#15922b" stroke="#15922b" points="1037.33,-627.28 1027.89,-621.69 1032.36,-626.72 1027.39,-626.17 1027.39,-626.17 1027.39,-626.17 1032.36,-626.72 1026.89,-630.64 1037.33,-627.28 1037.33,-627.28"/>
<text text-anchor="middle" x="1568" y="-860.3" font-family="Times,serif" font-size="14.00">sender</text>
</g>
<!-- Chat&#45;&gt;User -->
<g id="edge2" class="edge">
<title>Chat&#45;&gt;User</title>
<path fill="none" stroke="#1bc3c9" d="M791.3,-1007.15C714.85,-998.79 410.01,-1002.27 380.5,-970 348.71,-935.23 353.14,-796.36 380.5,-758 429.47,-689.34 512.11,-651.9 592.22,-631.6"/>
<polygon fill="#1bc3c9" stroke="#1bc3c9" points="791.63,-1007.2 800.9,-1013.06 796.58,-1007.9 801.53,-1008.6 801.53,-1008.6 801.53,-1008.6 796.58,-1007.9 802.16,-1004.15 791.63,-1007.2 791.63,-1007.2"/>
<polygon fill="#1bc3c9" stroke="#1bc3c9" points="592.27,-631.59 603.05,-633.58 597.12,-630.4 601.98,-629.21 601.98,-629.21 601.98,-629.21 597.12,-630.4 600.91,-624.84 592.27,-631.59 592.27,-631.59"/>
<text text-anchor="middle" x="410" y="-860.3" font-family="Times,serif" font-size="14.00">receiver</text>
</g>
<!-- Comment -->
<g id="node4" class="node">
<title>Comment</title>
<path fill="none" stroke="black" d="M380,-73.5C380,-73.5 691,-73.5 691,-73.5 697,-73.5 703,-79.5 703,-85.5 703,-85.5 703,-227.5 703,-227.5 703,-233.5 697,-239.5 691,-239.5 691,-239.5 380,-239.5 380,-239.5 374,-239.5 368,-233.5 368,-227.5 368,-227.5 368,-85.5 368,-85.5 368,-79.5 374,-73.5 380,-73.5"/>
<text text-anchor="middle" x="535.5" y="-224.3" font-family="Times,serif" font-size="14.00">Comment</text>
<polyline fill="none" stroke="black" points="368,-216.5 703,-216.5 "/>
<text text-anchor="start" x="376" y="-201.3" font-family="Times,serif" font-size="14.00">id :bigint</text>
<text text-anchor="start" x="376" y="-186.3" font-family="Times,serif" font-size="14.00">content :text</text>
<text text-anchor="start" x="376" y="-171.3" font-family="Times,serif" font-size="14.00">user_id :bigint</text>
<text text-anchor="start" x="376" y="-156.3" font-family="Times,serif" font-size="14.00">commentable_type :character varying</text>
<text text-anchor="start" x="376" y="-141.3" font-family="Times,serif" font-size="14.00">commentable_id :bigint</text>
<text text-anchor="start" x="376" y="-126.3" font-family="Times,serif" font-size="14.00">created_at :timestamp(6) without time zone</text>
<text text-anchor="start" x="376" y="-111.3" font-family="Times,serif" font-size="14.00">updated_at :timestamp(6) without time zone</text>
<text text-anchor="start" x="376" y="-96.3" font-family="Times,serif" font-size="14.00">comments_count :integer</text>
<text text-anchor="start" x="376" y="-81.3" font-family="Times,serif" font-size="14.00">post_id :bigint</text>
</g>
<!-- Comment&#45;&gt;Comment -->
<g id="edge7" class="edge">
<title>Comment&#45;&gt;Comment</title>
<path fill="none" stroke="#2af28a" d="M712.52,-166.65C717.93,-163.9 721,-160.52 721,-156.5 721,-152.48 717.93,-149.1 712.52,-146.35"/>
<polygon fill="#2af28a" stroke="#2af28a" points="712.37,-166.71 701.42,-166.02 707.69,-168.47 703.01,-170.23 703.01,-170.23 703.01,-170.23 707.69,-168.47 704.59,-174.44 712.37,-166.71 712.37,-166.71"/>
<polygon fill="#2af28a" stroke="#2af28a" points="712.37,-146.29 704.59,-138.56 707.69,-144.53 703.01,-142.77 703.01,-142.77 703.01,-142.77 707.69,-144.53 701.42,-146.98 712.37,-146.29 712.37,-146.29"/>
</g>
<!-- Post -->
<g id="node9" class="node">
<title>Post</title>
<path fill="none" stroke="black" d="M402,-299C402,-299 713,-299 713,-299 719,-299 725,-305 725,-311 725,-311 725,-423 725,-423 725,-429 719,-435 713,-435 713,-435 402,-435 402,-435 396,-435 390,-429 390,-423 390,-423 390,-311 390,-311 390,-305 396,-299 402,-299"/>
<text text-anchor="middle" x="557.5" y="-419.8" font-family="Times,serif" font-size="14.00">Post</text>
<polyline fill="none" stroke="black" points="390,-412 725,-412 "/>
<text text-anchor="start" x="398" y="-396.8" font-family="Times,serif" font-size="14.00">id :bigint</text>
<text text-anchor="start" x="398" y="-381.8" font-family="Times,serif" font-size="14.00">content :text</text>
<text text-anchor="start" x="398" y="-366.8" font-family="Times,serif" font-size="14.00">created_at :timestamp(6) without time zone</text>
<text text-anchor="start" x="398" y="-351.8" font-family="Times,serif" font-size="14.00">updated_at :timestamp(6) without time zone</text>
<text text-anchor="start" x="398" y="-336.8" font-family="Times,serif" font-size="14.00">user_id :bigint</text>
<text text-anchor="start" x="398" y="-321.8" font-family="Times,serif" font-size="14.00">likes_count :integer</text>
<text text-anchor="start" x="398" y="-306.8" font-family="Times,serif" font-size="14.00">comments_count :integer</text>
</g>
<!-- Comment&#45;&gt;Post -->
<g id="edge5" class="edge">
<title>Comment&#45;&gt;Post</title>
<path fill="none" stroke="#d0d9d3" d="M545.27,-250.07C546.62,-262.93 548.01,-276.03 549.33,-288.58"/>
<polygon fill="#d0d9d3" stroke="#d0d9d3" points="545.24,-249.77 548.66,-239.35 544.71,-244.8 544.19,-239.83 544.19,-239.83 544.19,-239.83 544.71,-244.8 539.71,-240.3 545.24,-249.77 545.24,-249.77"/>
<polygon fill="#d0d9d3" stroke="#d0d9d3" points="549.37,-288.94 545.94,-299.35 549.89,-293.91 550.42,-298.88 550.42,-298.88 550.42,-298.88 549.89,-293.91 554.89,-298.41 549.37,-288.94 549.37,-288.94"/>
</g>
<!-- Comment&#45;&gt;User -->
<g id="edge4" class="edge">
<title>Comment&#45;&gt;User</title>
<path fill="none" stroke="#27088f" d="M713.13,-235.37C718.61,-237.03 724.08,-238.58 729.5,-240 764.1,-249.1 865.66,-231.32 889.5,-258 893.94,-262.97 893.65,-267.78 889.5,-273 867.35,-300.84 834.46,-263.82 811.5,-291 767.29,-343.34 767,-419.85 778.26,-484.42"/>
<polygon fill="#27088f" stroke="#27088f" points="712.78,-235.26 704.57,-227.99 708.01,-233.77 703.23,-232.29 703.23,-232.29 703.23,-232.29 708.01,-233.77 701.89,-236.58 712.78,-235.26 712.78,-235.26"/>
<polygon fill="#27088f" stroke="#27088f" points="778.26,-484.43 775.66,-495.08 779.17,-489.35 780.08,-494.26 780.08,-494.26 780.08,-494.26 779.17,-489.35 784.51,-493.45 778.26,-484.43 778.26,-484.43"/>
</g>
<!-- Commentable -->
<g id="node13" class="node">
<title>Commentable</title>
<ellipse fill="none" stroke="black" cx="535.5" cy="-18" rx="75.29" ry="18"/>
<text text-anchor="middle" x="535.5" y="-14.3" font-family="Times,serif" font-size="14.00">Commentable</text>
</g>
<!-- Comment&#45;&gt;Commentable -->
<g id="edge6" class="edge">
<title>Comment&#45;&gt;Commentable</title>
<path fill="none" stroke="#f38d54" d="M535.5,-63.03C535.5,-57.2 535.5,-51.65 535.5,-46.56"/>
<polygon fill="#f38d54" stroke="#f38d54" points="535.5,-63.34 531,-73.34 535.5,-68.34 535.5,-73.34 535.5,-73.34 535.5,-73.34 535.5,-68.34 540,-73.34 535.5,-63.34 535.5,-63.34"/>
<polygon fill="#f38d54" stroke="#f38d54" points="535.5,-46.27 540,-36.27 535.5,-41.27 535.5,-36.27 535.5,-36.27 535.5,-36.27 535.5,-41.27 531,-36.27 535.5,-46.27 535.5,-46.27"/>
</g>
<!-- Follow -->
<g id="node5" class="node">
<title>Follow</title>
<path fill="none" stroke="black" d="M833,-306.5C833,-306.5 1144,-306.5 1144,-306.5 1150,-306.5 1156,-312.5 1156,-318.5 1156,-318.5 1156,-415.5 1156,-415.5 1156,-421.5 1150,-427.5 1144,-427.5 1144,-427.5 833,-427.5 833,-427.5 827,-427.5 821,-421.5 821,-415.5 821,-415.5 821,-318.5 821,-318.5 821,-312.5 827,-306.5 833,-306.5"/>
<text text-anchor="middle" x="988.5" y="-412.3" font-family="Times,serif" font-size="14.00">Follow</text>
<polyline fill="none" stroke="black" points="821,-404.5 1156,-404.5 "/>
<text text-anchor="start" x="829" y="-389.3" font-family="Times,serif" font-size="14.00">id :bigint</text>
<text text-anchor="start" x="829" y="-374.3" font-family="Times,serif" font-size="14.00">follower_id :bigint</text>
<text text-anchor="start" x="829" y="-359.3" font-family="Times,serif" font-size="14.00">followed_id :bigint</text>
<text text-anchor="start" x="829" y="-344.3" font-family="Times,serif" font-size="14.00">status :integer</text>
<text text-anchor="start" x="829" y="-329.3" font-family="Times,serif" font-size="14.00">created_at :timestamp(6) without time zone</text>
<text text-anchor="start" x="829" y="-314.3" font-family="Times,serif" font-size="14.00">updated_at :timestamp(6) without time zone</text>
</g>
<!-- Follow&#45;&gt;User -->
<g id="edge8" class="edge">
<title>Follow&#45;&gt;User</title>
<path fill="none" stroke="#a535c1" d="M992.52,-437.7C990.96,-450.98 987.66,-464.35 981.5,-476 979.72,-479.37 977.81,-482.68 975.78,-485.93"/>
<polygon fill="#a535c1" stroke="#a535c1" points="992.54,-437.56 997.88,-427.99 992.96,-432.58 993.39,-427.6 993.39,-427.6 993.39,-427.6 992.96,-432.58 988.91,-427.21 992.54,-437.56 992.54,-437.56"/>
<polygon fill="#a535c1" stroke="#a535c1" points="975.69,-486.07 966.41,-491.91 972.93,-490.23 970.16,-494.4 970.16,-494.4 970.16,-494.4 972.93,-490.23 973.91,-496.89 975.69,-486.07 975.69,-486.07"/>
<text text-anchor="middle" x="1016.5" y="-464.8" font-family="Times,serif" font-size="14.00">follower</text>
</g>
<!-- Follow&#45;&gt;User -->
<g id="edge9" class="edge">
<title>Follow&#45;&gt;User</title>
<path fill="none" stroke="#67dc2a" d="M1050.98,-437C1056.11,-450.01 1056.88,-463.46 1049.5,-476 1044.95,-483.73 1039.76,-491.04 1034.04,-497.94"/>
<polygon fill="#67dc2a" stroke="#67dc2a" points="1050.82,-436.67 1050.6,-425.7 1048.68,-432.15 1046.53,-427.64 1046.53,-427.64 1046.53,-427.64 1048.68,-432.15 1042.47,-429.57 1050.82,-436.67 1050.82,-436.67"/>
<polygon fill="#67dc2a" stroke="#67dc2a" points="1033.7,-498.34 1023.72,-502.89 1030.4,-502.1 1027.11,-505.86 1027.11,-505.86 1027.11,-505.86 1030.4,-502.1 1030.49,-508.83 1033.7,-498.34 1033.7,-498.34"/>
<text text-anchor="middle" x="1086" y="-464.8" font-family="Times,serif" font-size="14.00">followed</text>
</g>
<!-- Interest -->
<g id="node6" class="node">
<title>Interest</title>
<path fill="none" stroke="black" d="M461,-818.5C461,-818.5 772,-818.5 772,-818.5 778,-818.5 784,-824.5 784,-830.5 784,-830.5 784,-897.5 784,-897.5 784,-903.5 778,-909.5 772,-909.5 772,-909.5 461,-909.5 461,-909.5 455,-909.5 449,-903.5 449,-897.5 449,-897.5 449,-830.5 449,-830.5 449,-824.5 455,-818.5 461,-818.5"/>
<text text-anchor="middle" x="616.5" y="-894.3" font-family="Times,serif" font-size="14.00">Interest</text>
<polyline fill="none" stroke="black" points="449,-886.5 784,-886.5 "/>
<text text-anchor="start" x="457" y="-871.3" font-family="Times,serif" font-size="14.00">id :bigint</text>
<text text-anchor="start" x="457" y="-856.3" font-family="Times,serif" font-size="14.00">name :character varying</text>
<text text-anchor="start" x="457" y="-841.3" font-family="Times,serif" font-size="14.00">created_at :timestamp(6) without time zone</text>
<text text-anchor="start" x="457" y="-826.3" font-family="Times,serif" font-size="14.00">updated_at :timestamp(6) without time zone</text>
</g>
<!-- Interest&#45;&gt;User -->
<g id="edge10" class="edge">
<title>Interest&#45;&gt;User</title>
<path fill="none" stroke="#8b79a1" d="M657.59,-810.18C676.07,-786.44 698.69,-757.36 720.94,-728.76"/>
<polygon fill="#8b79a1" stroke="#8b79a1" points="657.36,-810.49 647.66,-815.62 654.29,-814.43 651.22,-818.38 651.22,-818.38 651.22,-818.38 654.29,-814.43 654.77,-821.14 657.36,-810.49 657.36,-810.49"/>
<polygon fill="#8b79a1" stroke="#8b79a1" points="721.06,-728.6 730.75,-723.47 724.13,-724.66 727.2,-720.71 727.2,-720.71 727.2,-720.71 724.13,-724.66 723.65,-717.95 721.06,-728.6 721.06,-728.6"/>
</g>
<!-- Like -->
<g id="node7" class="node">
<title>Like</title>
<path fill="none" stroke="black" d="M12,-811C12,-811 323,-811 323,-811 329,-811 335,-817 335,-823 335,-823 335,-905 335,-905 335,-911 329,-917 323,-917 323,-917 12,-917 12,-917 6,-917 0,-911 0,-905 0,-905 0,-823 0,-823 0,-817 6,-811 12,-811"/>
<text text-anchor="middle" x="167.5" y="-901.8" font-family="Times,serif" font-size="14.00">Like</text>
<polyline fill="none" stroke="black" points="0,-894 335,-894 "/>
<text text-anchor="start" x="8" y="-878.8" font-family="Times,serif" font-size="14.00">id :bigint</text>
<text text-anchor="start" x="8" y="-863.8" font-family="Times,serif" font-size="14.00">user_id :bigint</text>
<text text-anchor="start" x="8" y="-848.8" font-family="Times,serif" font-size="14.00">post_id :bigint</text>
<text text-anchor="start" x="8" y="-833.8" font-family="Times,serif" font-size="14.00">created_at :timestamp(6) without time zone</text>
<text text-anchor="start" x="8" y="-818.8" font-family="Times,serif" font-size="14.00">updated_at :timestamp(6) without time zone</text>
</g>
<!-- Like&#45;&gt;Post -->
<g id="edge12" class="edge">
<title>Like&#45;&gt;Post</title>
<path fill="none" stroke="#154097" d="M214.72,-803.07C285.81,-712.84 420.27,-542.18 497.98,-443.55"/>
<polygon fill="#154097" stroke="#154097" points="214.69,-803.11 204.96,-808.18 211.59,-807.03 208.5,-810.96 208.5,-810.96 208.5,-810.96 211.59,-807.03 212.03,-813.75 214.69,-803.11 214.69,-803.11"/>
<polygon fill="#154097" stroke="#154097" points="498.21,-443.26 507.93,-438.19 501.3,-439.33 504.39,-435.4 504.39,-435.4 504.39,-435.4 501.3,-439.33 500.86,-432.62 498.21,-443.26 498.21,-443.26"/>
</g>
<!-- Like&#45;&gt;User -->
<g id="edge11" class="edge">
<title>Like&#45;&gt;User</title>
<path fill="none" stroke="#3f3a5a" d="M244.64,-805.08C278.02,-782.07 318.35,-756.87 357.5,-739 431.37,-705.28 515.99,-678.2 592.17,-657.64"/>
<polygon fill="#3f3a5a" stroke="#3f3a5a" points="244.51,-805.17 233.74,-807.19 240.41,-808.03 236.31,-810.88 236.31,-810.88 236.31,-810.88 240.41,-808.03 238.88,-814.58 244.51,-805.17 244.51,-805.17"/>
<polygon fill="#3f3a5a" stroke="#3f3a5a" points="592.23,-657.62 603.06,-659.38 597.06,-656.33 601.89,-655.04 601.89,-655.04 601.89,-655.04 597.06,-656.33 600.73,-650.69 592.23,-657.62 592.23,-657.62"/>
</g>
<!-- Message&#45;&gt;User -->
<g id="edge13" class="edge">
<title>Message&#45;&gt;User</title>
<path fill="none" stroke="#a38dd9" d="M927.94,-794.77C915.64,-774.57 901.79,-751.82 888.09,-729.34"/>
<polygon fill="#a38dd9" stroke="#a38dd9" points="927.96,-794.79 929.32,-805.67 930.56,-799.06 933.16,-803.33 933.16,-803.33 933.16,-803.33 930.56,-799.06 937,-800.99 927.96,-794.79 927.96,-794.79"/>
<polygon fill="#a38dd9" stroke="#a38dd9" points="888.06,-729.28 886.7,-718.4 885.46,-725.01 882.86,-720.74 882.86,-720.74 882.86,-720.74 885.46,-725.01 879.02,-723.08 888.06,-729.28 888.06,-729.28"/>
</g>
<!-- Post&#45;&gt;Comment -->
<g id="edge19" class="edge">
<title>Post&#45;&gt;Comment</title>
<path fill="none" stroke="#608e74" d="M454.98,-290.7C450.96,-285.08 447.42,-279.17 444.5,-273 440.79,-265.13 439.67,-257.32 440.53,-249.67"/>
<polygon fill="#608e74" stroke="#608e74" points="455.07,-290.81 457.62,-301.48 458.13,-294.77 461.18,-298.73 461.18,-298.73 461.18,-298.73 458.13,-294.77 464.74,-295.98 455.07,-290.81 455.07,-290.81"/>
<polygon fill="#608e74" stroke="#608e74" points="440.57,-249.5 447.14,-240.72 441.66,-244.62 442.75,-239.74 442.75,-239.74 442.75,-239.74 441.66,-244.62 438.36,-238.76 440.57,-249.5 440.57,-249.5"/>
<text text-anchor="middle" x="493.5" y="-261.8" font-family="Times,serif" font-size="14.00">all_comments</text>
</g>
<!-- Post&#45;&gt;User -->
<g id="edge18" class="edge">
<title>Post&#45;&gt;User</title>
<path fill="none" stroke="#8dba87" d="M548.08,-445.18C549.57,-456.08 552.76,-466.72 558.5,-476 568.14,-491.57 580.27,-505.35 593.99,-517.55"/>
<polygon fill="#8dba87" stroke="#8dba87" points="548.07,-445.08 551.64,-434.72 547.62,-440.1 547.16,-435.12 547.16,-435.12 547.16,-435.12 547.62,-440.1 542.68,-435.53 548.07,-445.08 548.07,-445.08"/>
<polygon fill="#8dba87" stroke="#8dba87" points="594.15,-517.69 598.86,-527.59 597.96,-520.93 601.77,-524.16 601.77,-524.16 601.77,-524.16 597.96,-520.93 604.69,-520.73 594.15,-517.69 594.15,-517.69"/>
<text text-anchor="middle" x="599" y="-464.8" font-family="Times,serif" font-size="14.00">users_liked</text>
</g>
<!-- Post&#45;&gt;User -->
<g id="edge20" class="edge">
<title>Post&#45;&gt;User</title>
<path fill="none" stroke="#8b19b6" d="M632.04,-442.17C643.81,-453.6 655.92,-465.19 667.5,-476 671.55,-479.78 675.68,-483.61 679.87,-487.47"/>
<polygon fill="#8b19b6" stroke="#8b19b6" points="631.92,-442.06 627.9,-431.86 628.34,-438.57 624.76,-435.08 624.76,-435.08 624.76,-435.08 628.34,-438.57 621.62,-438.31 631.92,-442.06 631.92,-442.06"/>
<polygon fill="#8b19b6" stroke="#8b19b6" points="680.08,-487.66 684.4,-497.74 683.76,-491.05 687.45,-494.43 687.45,-494.43 687.45,-494.43 683.76,-491.05 690.49,-491.11 680.08,-487.66 680.08,-487.66"/>
</g>
<!-- ActiveStorage::Attachment -->
<g id="node14" class="node">
<title>ActiveStorage::Attachment</title>
<ellipse fill="none" stroke="black" cx="874.5" cy="-156.5" rx="135.68" ry="18"/>
<text text-anchor="middle" x="874.5" y="-152.8" font-family="Times,serif" font-size="14.00">ActiveStorage::Attachment</text>
</g>
<!-- Post&#45;&gt;ActiveStorage::Attachment -->
<g id="edge14" class="edge">
<title>Post&#45;&gt;ActiveStorage::Attachment</title>
<path fill="none" stroke="#a309e4" d="M569.66,-289.11C574.68,-277.25 581.69,-266.22 591.5,-258 615.2,-238.13 700.18,-249.83 729.5,-240 771.31,-225.98 814.67,-199.46 842.96,-180.26"/>
<polygon fill="#a309e4" stroke="#a309e4" points="569.55,-289.41 561.84,-297.2 567.81,-294.09 566.06,-298.78 566.06,-298.78 566.06,-298.78 567.81,-294.09 570.27,-300.35 569.55,-289.41 569.55,-289.41"/>
<polygon fill="#a309e4" stroke="#a309e4" points="843,-180.23 853.79,-178.27 847.11,-177.4 851.23,-174.56 851.23,-174.56 851.23,-174.56 847.11,-177.4 848.68,-170.85 843,-180.23 843,-180.23"/>
<text text-anchor="middle" x="655" y="-261.8" font-family="Times,serif" font-size="14.00">video_attachment</text>
</g>
<!-- Post&#45;&gt;ActiveStorage::Attachment -->
<g id="edge16" class="edge">
<title>Post&#45;&gt;ActiveStorage::Attachment</title>
<path fill="none" stroke="#7a0db1" d="M685.7,-293.73C696.89,-286.88 707.96,-279.91 718.5,-273 764.09,-243.1 814.36,-204.86 845.19,-180.76"/>
<polygon fill="#7a0db1" stroke="#7a0db1" points="685.67,-293.74 674.79,-295.09 681.4,-296.34 677.12,-298.93 677.12,-298.93 677.12,-298.93 681.4,-296.34 679.46,-302.78 685.67,-293.74 685.67,-293.74"/>
<polygon fill="#7a0db1" stroke="#7a0db1" points="845.48,-180.53 856.13,-177.9 849.42,-177.45 853.35,-174.36 853.35,-174.36 853.35,-174.36 849.42,-177.45 850.57,-170.82 845.48,-180.53 845.48,-180.53"/>
<text text-anchor="middle" x="814.5" y="-261.8" font-family="Times,serif" font-size="14.00">images_attachments</text>
</g>
<!-- ActiveStorage::Blob -->
<g id="node15" class="node">
<title>ActiveStorage::Blob</title>
<ellipse fill="none" stroke="black" cx="225.5" cy="-156.5" rx="102.88" ry="18"/>
<text text-anchor="middle" x="225.5" y="-152.8" font-family="Times,serif" font-size="14.00">ActiveStorage::Blob</text>
</g>
<!-- Post&#45;&gt;ActiveStorage::Blob -->
<g id="edge15" class="edge">
<title>Post&#45;&gt;ActiveStorage::Blob</title>
<path fill="none" stroke="#d1942e" d="M395.8,-294.05C383.64,-287.32 371.74,-280.28 360.5,-273 318.49,-245.81 275.52,-206.7 249.67,-181.7"/>
<polygon fill="#d1942e" stroke="#d1942e" points="395.92,-294.11 402.55,-302.85 400.31,-296.51 404.7,-298.9 404.7,-298.9 404.7,-298.9 400.31,-296.51 406.85,-294.95 395.92,-294.11 395.92,-294.11"/>
<polygon fill="#d1942e" stroke="#d1942e" points="249.37,-181.41 245.36,-171.2 245.79,-177.91 242.21,-174.42 242.21,-174.42 242.21,-174.42 245.79,-177.91 239.07,-177.64 249.37,-181.41 249.37,-181.41"/>
<text text-anchor="middle" x="398.5" y="-261.8" font-family="Times,serif" font-size="14.00">video_blob</text>
</g>
<!-- Post&#45;&gt;ActiveStorage::Blob -->
<g id="edge17" class="edge">
<title>Post&#45;&gt;ActiveStorage::Blob</title>
<path fill="none" stroke="#8d1ae3" d="M379.97,-318.19C310.47,-298.7 245.86,-279.27 240.5,-273 219.81,-248.79 218.9,-210.65 221.26,-184.89"/>
<polygon fill="#8d1ae3" stroke="#8d1ae3" points="380.17,-318.24 388.59,-325.27 384.99,-319.59 389.8,-320.94 389.8,-320.94 389.8,-320.94 384.99,-319.59 391.01,-316.6 380.17,-318.24 380.17,-318.24"/>
<polygon fill="#8d1ae3" stroke="#8d1ae3" points="221.29,-184.61 226.9,-175.19 221.86,-179.65 222.43,-174.68 222.43,-174.68 222.43,-174.68 221.86,-179.65 217.96,-174.17 221.29,-184.61 221.29,-184.61"/>
<text text-anchor="middle" x="289" y="-261.8" font-family="Times,serif" font-size="14.00">images_blobs</text>
</g>
<!-- Profile -->
<g id="node10" class="node">
<title>Profile</title>
<path fill="none" stroke="black" d="M1167,-758.5C1167,-758.5 1478,-758.5 1478,-758.5 1484,-758.5 1490,-764.5 1490,-770.5 1490,-770.5 1490,-957.5 1490,-957.5 1490,-963.5 1484,-969.5 1478,-969.5 1478,-969.5 1167,-969.5 1167,-969.5 1161,-969.5 1155,-963.5 1155,-957.5 1155,-957.5 1155,-770.5 1155,-770.5 1155,-764.5 1161,-758.5 1167,-758.5"/>
<text text-anchor="middle" x="1322.5" y="-954.3" font-family="Times,serif" font-size="14.00">Profile</text>
<polyline fill="none" stroke="black" points="1155,-946.5 1490,-946.5 "/>
<text text-anchor="start" x="1163" y="-931.3" font-family="Times,serif" font-size="14.00">id :bigint</text>
<text text-anchor="start" x="1163" y="-916.3" font-family="Times,serif" font-size="14.00">first_name :character varying</text>
<text text-anchor="start" x="1163" y="-901.3" font-family="Times,serif" font-size="14.00">last_name :character varying</text>
<text text-anchor="start" x="1163" y="-886.3" font-family="Times,serif" font-size="14.00">bio :text</text>
<text text-anchor="start" x="1163" y="-871.3" font-family="Times,serif" font-size="14.00">country :character varying</text>
<text text-anchor="start" x="1163" y="-856.3" font-family="Times,serif" font-size="14.00">city :character varying</text>
<text text-anchor="start" x="1163" y="-841.3" font-family="Times,serif" font-size="14.00">profession :character varying</text>
<text text-anchor="start" x="1163" y="-826.3" font-family="Times,serif" font-size="14.00">user_id :bigint</text>
<text text-anchor="start" x="1163" y="-811.3" font-family="Times,serif" font-size="14.00">created_at :timestamp(6) without time zone</text>
<text text-anchor="start" x="1163" y="-796.3" font-family="Times,serif" font-size="14.00">updated_at :timestamp(6) without time zone</text>
<text text-anchor="start" x="1163" y="-781.3" font-family="Times,serif" font-size="14.00">dob :date</text>
<text text-anchor="start" x="1163" y="-766.3" font-family="Times,serif" font-size="14.00">gender :integer</text>
</g>
<!-- Profile&#45;&gt;User -->
<g id="edge21" class="edge">
<title>Profile&#45;&gt;User</title>
<path fill="none" stroke="#939d2e" d="M1145.78,-758.15C1145.69,-758.1 1145.59,-758.05 1145.5,-758 1110.69,-739.89 1073.25,-721.75 1036.51,-704.66"/>
<polygon fill="#939d2e" stroke="#939d2e" points="1145.74,-758.12 1152.49,-766.76 1150.16,-760.45 1154.59,-762.78 1154.59,-762.78 1154.59,-762.78 1150.16,-760.45 1156.68,-758.8 1145.74,-758.12 1145.74,-758.12"/>
<polygon fill="#939d2e" stroke="#939d2e" points="1036.26,-704.55 1029.08,-696.26 1031.72,-702.44 1027.19,-700.34 1027.19,-700.34 1027.19,-700.34 1031.72,-702.44 1025.3,-704.43 1036.26,-704.55 1036.26,-704.55"/>
</g>
<!-- User&#45;&gt;Follow -->
<g id="edge26" class="edge">
<title>User&#45;&gt;Follow</title>
<path fill="none" stroke="#925bc6" d="M1036.16,-549.61C1069.52,-531.45 1099.68,-507.52 1120.5,-476 1130.14,-461.41 1128.31,-447.8 1119.78,-435.5"/>
<polygon fill="#925bc6" stroke="#925bc6" points="1036,-549.7 1025.05,-550.36 1031.57,-552.02 1027.14,-554.34 1027.14,-554.34 1027.14,-554.34 1031.57,-552.02 1029.23,-558.33 1036,-549.7 1036,-549.7"/>
<polygon fill="#925bc6" stroke="#925bc6" points="1119.63,-435.32 1116.73,-424.74 1116.45,-431.46 1113.26,-427.61 1113.26,-427.61 1113.26,-427.61 1116.45,-431.46 1109.79,-430.47 1119.63,-435.32 1119.63,-435.32"/>
<text text-anchor="middle" x="1206.5" y="-464.8" font-family="Times,serif" font-size="14.00">follower_relationships</text>
</g>
<!-- User&#45;&gt;Follow -->
<g id="edge28" class="edge">
<title>User&#45;&gt;Follow</title>
<path fill="none" stroke="#c1a434" d="M801.67,-484.45C803.89,-476.22 807.09,-468.31 811.5,-461 817.34,-451.33 824.56,-442.62 832.7,-434.78"/>
<polygon fill="#c1a434" stroke="#c1a434" points="801.66,-484.47 795.09,-493.26 800.57,-489.35 799.49,-494.24 799.49,-494.24 799.49,-494.24 800.57,-489.35 803.88,-495.21 801.66,-484.47 801.66,-484.47"/>
<polygon fill="#c1a434" stroke="#c1a434" points="833,-434.51 843.45,-431.16 836.72,-431.16 840.43,-427.81 840.43,-427.81 840.43,-427.81 836.72,-431.16 837.42,-424.47 833,-434.51 833,-434.51"/>
<text text-anchor="middle" x="894.5" y="-464.8" font-family="Times,serif" font-size="14.00">following_relationships</text>
</g>
<!-- User&#45;&gt;Post -->
<g id="edge25" class="edge">
<title>User&#45;&gt;Post</title>
<path fill="none" stroke="#0681a9" d="M692.78,-487.36C683.27,-478.38 673.76,-469.51 664.5,-461 657.71,-454.77 650.62,-448.36 643.45,-441.98"/>
<polygon fill="#0681a9" stroke="#0681a9" points="692.79,-487.37 696.96,-497.51 696.42,-490.8 700.05,-494.24 700.05,-494.24 700.05,-494.24 696.42,-490.8 703.14,-490.97 692.79,-487.37 692.79,-487.37"/>
<polygon fill="#0681a9" stroke="#0681a9" points="643.14,-441.7 638.65,-431.7 639.41,-438.38 635.67,-435.06 635.67,-435.06 635.67,-435.06 639.41,-438.38 632.68,-438.43 643.14,-441.7 643.14,-441.7"/>
<text text-anchor="middle" x="717.5" y="-464.8" font-family="Times,serif" font-size="14.00">posts_liked</text>
</g>
<!-- User&#45;&gt;User -->
<g id="edge27" class="edge">
<title>User&#45;&gt;User</title>
<path fill="none" stroke="#973864" d="M1037.07,-613.31C1042.16,-611.68 1045,-609.74 1045,-607.5 1045,-605.26 1042.16,-603.32 1037.07,-601.69"/>
<polygon fill="#973864" stroke="#973864" points="1037.02,-613.32 1026.25,-611.25 1032.15,-614.47 1027.29,-615.63 1027.29,-615.63 1027.29,-615.63 1032.15,-614.47 1028.32,-620.01 1037.02,-613.32 1037.02,-613.32"/>
<polygon fill="#973864" stroke="#973864" points="1037.02,-601.68 1028.32,-594.99 1032.15,-600.53 1027.29,-599.37 1027.29,-599.37 1027.29,-599.37 1032.15,-600.53 1026.25,-603.75 1037.02,-601.68 1037.02,-601.68"/>
<text text-anchor="middle" x="1078" y="-603.8" font-family="Times,serif" font-size="14.00">followers</text>
</g>
<!-- User&#45;&gt;User -->
<g id="edge29" class="edge">
<title>User&#45;&gt;User</title>
<path fill="none" stroke="#dd3902" d="M1037.47,-630.82C1080.21,-627.8 1111,-620.03 1111,-607.5 1111,-594.97 1080.21,-587.2 1037.47,-584.18"/>
<polygon fill="#dd3902" stroke="#dd3902" points="1037.26,-630.83 1027.01,-626.94 1032.27,-631.13 1027.28,-631.43 1027.28,-631.43 1027.28,-631.43 1032.27,-631.13 1027.55,-635.93 1037.26,-630.83 1037.26,-630.83"/>
<polygon fill="#dd3902" stroke="#dd3902" points="1037.26,-584.17 1027.55,-579.07 1032.27,-583.87 1027.28,-583.57 1027.28,-583.57 1027.28,-583.57 1032.27,-583.87 1027.01,-588.06 1037.26,-584.17 1037.26,-584.17"/>
<text text-anchor="middle" x="1147.5" y="-603.8" font-family="Times,serif" font-size="14.00">followings</text>
</g>
<!-- WebauthnCredential -->
<g id="node12" class="node">
<title>WebauthnCredential</title>
<path fill="none" stroke="black" d="M1186,-291.5C1186,-291.5 1497,-291.5 1497,-291.5 1503,-291.5 1509,-297.5 1509,-303.5 1509,-303.5 1509,-430.5 1509,-430.5 1509,-436.5 1503,-442.5 1497,-442.5 1497,-442.5 1186,-442.5 1186,-442.5 1180,-442.5 1174,-436.5 1174,-430.5 1174,-430.5 1174,-303.5 1174,-303.5 1174,-297.5 1180,-291.5 1186,-291.5"/>
<text text-anchor="middle" x="1341.5" y="-427.3" font-family="Times,serif" font-size="14.00">WebauthnCredential</text>
<polyline fill="none" stroke="black" points="1174,-419.5 1509,-419.5 "/>
<text text-anchor="start" x="1182" y="-404.3" font-family="Times,serif" font-size="14.00">id :bigint</text>
<text text-anchor="start" x="1182" y="-389.3" font-family="Times,serif" font-size="14.00">user_id :bigint</text>
<text text-anchor="start" x="1182" y="-374.3" font-family="Times,serif" font-size="14.00">external_id :character varying</text>
<text text-anchor="start" x="1182" y="-359.3" font-family="Times,serif" font-size="14.00">public_key :character varying</text>
<text text-anchor="start" x="1182" y="-344.3" font-family="Times,serif" font-size="14.00">nickname :character varying</text>
<text text-anchor="start" x="1182" y="-329.3" font-family="Times,serif" font-size="14.00">sign_count :integer</text>
<text text-anchor="start" x="1182" y="-314.3" font-family="Times,serif" font-size="14.00">created_at :timestamp(6) without time zone</text>
<text text-anchor="start" x="1182" y="-299.3" font-family="Times,serif" font-size="14.00">updated_at :timestamp(6) without time zone</text>
</g>
<!-- User&#45;&gt;WebauthnCredential -->
<g id="edge22" class="edge">
<title>User&#45;&gt;WebauthnCredential</title>
<path fill="none" stroke="#6f0550" d="M1037.05,-585.2C1123.65,-567.38 1218.83,-534.94 1289.5,-476 1297.82,-469.06 1304.91,-460.48 1310.92,-451.21"/>
<polygon fill="#6f0550" stroke="#6f0550" points="1036.88,-585.23 1026.19,-582.78 1031.98,-586.21 1027.07,-587.19 1027.07,-587.19 1027.07,-587.19 1031.98,-586.21 1027.96,-591.61 1036.88,-585.23 1036.88,-585.23"/>
<polygon fill="#6f0550" stroke="#6f0550" points="1310.99,-451.09 1320,-444.84 1313.56,-446.81 1316.14,-442.52 1316.14,-442.52 1316.14,-442.52 1313.56,-446.81 1312.28,-440.2 1310.99,-451.09 1310.99,-451.09"/>
</g>
<!-- User&#45;&gt;ActiveStorage::Attachment -->
<g id="edge23" class="edge">
<title>User&#45;&gt;ActiveStorage::Attachment</title>
<path fill="none" stroke="#5f3e14" d="M1037.25,-584.7C1220.35,-561.63 1458.96,-517.95 1518.5,-443 1560.52,-390.1 1561.15,-343.39 1518.5,-291 1455.03,-213.02 1174.09,-179.15 1004.95,-165.61"/>
<polygon fill="#5f3e14" stroke="#5f3e14" points="1037.12,-584.72 1026.64,-581.49 1032.16,-585.34 1027.2,-585.95 1027.2,-585.95 1027.2,-585.95 1032.16,-585.34 1027.75,-590.42 1037.12,-584.72 1037.12,-584.72"/>
<polygon fill="#5f3e14" stroke="#5f3e14" points="1004.94,-165.61 995.33,-160.33 999.96,-165.21 994.97,-164.82 994.97,-164.82 994.97,-164.82 999.96,-165.21 994.62,-169.31 1004.94,-165.61 1004.94,-165.61"/>
<text text-anchor="middle" x="1617" y="-363.3" font-family="Times,serif" font-size="14.00">avatar_attachment</text>
</g>
<!-- User&#45;&gt;ActiveStorage::Blob -->
<g id="edge24" class="edge">
<title>User&#45;&gt;ActiveStorage::Blob</title>
<path fill="none" stroke="#845714" d="M591.79,-580.19C491.06,-558.13 376.86,-517.57 296.5,-443 222.64,-374.46 220.45,-242 223.33,-184.85"/>
<polygon fill="#845714" stroke="#845714" points="592.03,-580.24 600.87,-586.74 596.92,-581.29 601.81,-582.33 601.81,-582.33 601.81,-582.33 596.92,-581.29 602.75,-577.93 592.03,-580.24 592.03,-580.24"/>
<polygon fill="#845714" stroke="#845714" points="223.34,-184.76 228.43,-175.04 223.64,-179.77 223.94,-174.77 223.94,-174.77 223.94,-174.77 223.64,-179.77 219.45,-174.51 223.34,-184.76 223.34,-184.76"/>
<text text-anchor="middle" x="338.5" y="-363.3" font-family="Times,serif" font-size="14.00">avatar_blob</text>
</g>
</g>
</svg>
